<?xml version="1.0" standalone="no"?>
<!DOCTYPE svg PUBLIC "-//W3C//DTD SVG 20010904//EN"
 "http://www.w3.org/TR/2001/REC-SVG-20010904/DTD/svg10.dtd">
<svg version="1.0" xmlns="http://www.w3.org/2000/svg"
 width="640.000000pt" height="340.000000pt" viewBox="0 0 640.000000 340.000000"
 preserveAspectRatio="xMidYMid meet">
<metadata>
Created by potrace 1.15, written by Peter Selinger 2001-2017
</metadata>
<g transform="translate(0.000000,340.000000) scale(0.100000,-0.100000)"
fill="#000000" stroke="none">
<path d="M1 3335 c2 -70 18 -93 60 -82 11 3 19 0 19 -8 0 -7 10 -19 23 -28
l22 -15 -25 5 c-14 2 -32 -2 -40 -9 -8 -7 -14 -12 -12 -11 2 1 12 -6 22 -14
18 -16 16 -53 -3 -53 -6 0 -7 -3 -4 -7 9 -8 -44 -44 -55 -37 -4 3 -8 -4 -8
-15 0 -12 7 -21 15 -21 8 0 15 -4 15 -10 0 -5 -7 -10 -15 -10 -13 0 -15 -22
-14 -145 0 -80 5 -147 10 -150 5 -4 9 3 9 15 0 23 21 23 28 0 3 -7 0 -10 -7
-6 -8 5 -8 0 -1 -18 7 -19 6 -25 -3 -23 -7 1 -12 -8 -11 -20 1 -25 -11 -31
-19 -10 -3 6 -6 -5 -6 -25 -1 -29 3 -38 15 -38 10 0 14 6 10 15 -7 20 8 19 25
-1 11 -14 10 -18 -6 -30 -13 -10 -18 -24 -17 -49 2 -22 -2 -35 -10 -35 -9 0
-9 -3 -1 -11 8 -8 17 -8 32 0 15 8 21 9 21 1 0 -6 4 -9 8 -6 13 8 13 -156 0
-171 -8 -10 -8 -17 0 -25 7 -7 7 -19 2 -34 -8 -19 -6 -24 7 -24 18 0 9 -14
-10 -16 -7 0 -20 -2 -29 -2 -11 -1 -18 -10 -18 -21 0 -11 -5 -23 -12 -27 -7
-5 -8 -3 -3 6 5 9 4 11 -3 6 -7 -4 -12 -34 -12 -72 0 -59 1 -63 17 -53 10 6
27 25 38 42 31 48 50 47 26 -2 -41 -80 -19 -245 58 -413 11 -27 30 -67 40 -90
10 -24 24 -61 30 -83 9 -34 20 -46 77 -82 36 -23 86 -50 110 -60 47 -19 54
-29 26 -36 -9 -3 5 -5 31 -6 61 -1 93 -18 140 -75 21 -26 53 -53 72 -60 36
-15 124 -72 165 -106 l25 -20 -28 10 c-46 16 -258 67 -312 75 -64 9 -118 37
-145 75 -12 16 -26 30 -33 30 -18 0 -67 52 -67 72 0 10 -5 18 -11 18 -5 0 -7
5 -3 12 4 7 3 8 -5 4 -7 -5 -20 12 -37 49 -18 42 -29 55 -40 51 -9 -3 -20 -6
-25 -6 -5 0 -28 -18 -50 -40 -23 -22 -45 -40 -50 -40 -5 0 -9 -6 -9 -14 0 -8
-9 -21 -20 -29 -19 -13 -20 -23 -18 -112 2 -59 7 -100 14 -102 7 -2 9 8 6 29
-4 29 -3 31 10 20 9 -7 22 -10 31 -6 8 3 18 1 21 -4 3 -6 15 -8 26 -5 12 3 20
0 20 -7 0 -7 8 -10 19 -7 15 3 18 1 14 -11 -5 -11 -3 -13 7 -7 10 6 12 4 7 -8
-3 -9 -3 -16 2 -14 4 1 20 -13 35 -31 31 -36 51 -33 42 7 -6 25 -6 25 9 7 13
-18 20 -15 16 7 -2 11 9 8 24 -7 8 -7 12 -16 9 -19 -3 -2 2 -7 11 -10 8 -4 15
-1 15 5 0 9 3 9 12 0 7 -7 18 -12 26 -12 28 0 102 -94 123 -157 11 -35 24 -65
29 -68 4 -3 11 -22 15 -42 4 -21 12 -47 18 -58 6 -11 10 -23 9 -27 -1 -5 2 -8
8 -8 5 0 10 13 10 30 0 30 -18 80 -30 80 -4 0 -7 6 -8 13 -5 71 -51 170 -85
185 -9 4 -10 32 -1 32 4 0 13 -8 20 -17 13 -17 14 -17 8 0 -6 17 10 24 20 8 3
-5 15 -7 26 -4 11 3 20 1 20 -5 0 -5 7 -13 16 -16 10 -4 13 -2 8 7 -10 18 8
-1 51 -53 37 -43 39 -41 18 18 -7 16 16 15 50 -2 19 -11 27 -12 27 -3 1 7 9 2
19 -10 10 -12 21 -19 25 -16 10 10 45 -40 61 -88 9 -25 15 -70 14 -100 -1 -68
15 -185 28 -201 21 -27 33 -80 22 -94 -6 -8 -15 -12 -18 -9 -4 2 -8 -2 -8 -10
0 -8 8 -15 17 -15 9 0 25 -15 34 -33 15 -27 16 -39 7 -73 -12 -44 -34 -70 -50
-60 -5 4 -15 32 -21 64 -7 31 -16 67 -21 79 -6 17 -4 25 9 33 12 8 12 10 2 7
-35 -9 -57 50 -76 206 -3 26 -9 45 -14 42 -4 -3 -10 1 -13 7 -2 7 -2 -14 0
-47 3 -33 18 -102 34 -153 16 -51 29 -100 29 -110 0 -9 9 -42 20 -72 11 -30
20 -62 20 -72 0 -19 -42 -68 -58 -68 -6 0 -12 -6 -15 -12 -9 -28 -41 63 -63
180 -4 22 -39 102 -44 102 -3 0 -6 20 -8 45 -3 55 -17 95 -32 95 -6 0 -9 3 -6
8 2 4 -2 18 -10 32 -9 16 -13 19 -14 9 0 -9 3 -19 8 -23 4 -4 7 -11 8 -14 3
-51 18 -130 29 -155 7 -18 14 -35 15 -39 13 -59 52 -190 64 -213 26 -49 19
-119 -11 -108 -11 4 -14 1 -11 -13 2 -15 12 -19 41 -19 32 0 37 3 37 22 0 12
9 27 19 33 11 5 27 17 35 26 21 20 26 16 72 -55 29 -45 45 -60 63 -61 l24 0
-26 24 c-28 26 -77 100 -77 117 0 7 7 8 18 4 9 -4 23 -8 31 -9 20 -4 75 -61
97 -102 10 -19 25 -34 32 -34 9 0 7 8 -7 29 -33 46 -71 133 -70 161 0 16 7 5
20 -33 11 -33 29 -68 39 -80 11 -11 20 -24 20 -29 0 -11 33 -48 42 -48 4 0 -7
21 -24 47 -17 25 -32 54 -33 64 -1 9 -7 24 -13 32 -7 8 -12 19 -11 23 1 5 -3
23 -10 39 -7 17 -14 53 -16 82 -2 28 -8 78 -14 110 -6 32 -13 85 -17 117 -3
33 -9 54 -13 48 -4 -7 -3 -38 1 -69 4 -32 11 -100 14 -150 4 -51 10 -93 15
-93 5 0 6 -7 2 -16 -10 -26 -23 5 -23 56 0 25 -9 95 -20 155 -43 239 -52 312
-47 365 5 57 40 148 82 213 14 20 37 56 52 78 29 44 34 53 72 121 13 24 27 45
31 48 4 3 25 39 46 80 39 76 46 116 30 185 -7 33 -7 38 -2 75 6 39 18 70 27
70 12 0 11 37 -1 61 -18 32 7 22 27 -11 16 -28 53 -42 53 -20 0 5 11 19 24 32
27 27 39 55 26 63 -5 3 -28 -4 -51 -15 -37 -20 -42 -20 -58 -6 -10 9 -22 16
-27 16 -8 0 -37 51 -31 56 1 1 34 10 72 19 39 10 83 22 99 28 35 13 57 59 46
99 -5 15 -6 28 -2 28 29 0 188 -148 206 -191 14 -34 14 -144 -1 -226 -4 -28
-2 -33 15 -33 25 0 39 -18 56 -71 14 -43 14 -43 15 -12 1 34 31 60 53 47 7 -5
8 -3 3 6 -6 10 -3 12 13 8 35 -10 62 18 62 63 0 21 -3 39 -7 39 -5 0 -9 17
-10 38 -1 20 -7 84 -13 142 -7 58 -12 160 -12 227 l-1 121 67 101 c77 114 127
163 199 189 47 18 50 21 51 58 1 21 9 76 16 122 13 72 17 82 33 80 17 -3 20
-14 23 -88 6 -117 7 -121 47 -108 18 6 35 14 39 17 4 4 1 38 -7 76 -8 39 -15
87 -15 108 l0 37 -124 0 -124 0 -15 -42 -14 -43 -13 90 c-7 50 -19 122 -26
160 -8 39 -14 82 -14 96 0 15 -7 29 -15 33 -8 3 -15 11 -15 18 0 9 3 9 11 -2
7 -12 9 -8 7 14 -3 34 -24 46 -32 19 -3 -10 -4 -4 -2 14 1 18 -1 30 -6 27 -4
-3 -8 -24 -9 -47 0 -33 -2 -38 -9 -22 -7 17 -9 17 -9 3 -1 -10 -8 -18 -16 -18
-8 0 -15 -4 -15 -9 0 -15 23 -26 28 -13 4 12 32 5 32 -9 0 -5 -7 -9 -15 -9 -8
0 -15 -6 -15 -12 -1 -8 -5 -7 -13 3 -11 15 -16 15 -37 3 -47 -26 -81 -9 -48
24 10 10 8 14 -10 18 -12 4 -22 12 -22 19 0 18 -30 40 -50 37 -19 -3 -35 24
-20 33 17 10 11 35 -16 70 -15 21 -21 36 -15 40 17 10 13 23 -9 30 -11 3 -20
12 -20 20 0 7 -14 23 -30 35 -16 12 -30 17 -30 11 0 -6 -9 -11 -20 -11 -11 0
-20 5 -20 10 0 6 -15 10 -32 10 -25 0 -29 3 -18 10 11 7 -2 10 -42 10 -56 0
-58 -1 -59 -27 l-1 -28 -10 28 -10 27 -534 0 c-412 -1 -534 -3 -535 -13 -3
-22 0 -60 5 -65 3 -3 14 1 23 9 10 7 15 9 11 5 -5 -5 2 -16 13 -24 20 -14 23
-13 40 9 13 17 19 20 20 9 4 -77 3 -90 -10 -90 -9 0 -12 -8 -8 -26 4 -20 1
-24 -12 -18 -9 4 -29 9 -46 12 -16 3 -46 16 -65 29 -19 13 -36 19 -38 14 -4
-13 -63 -2 -92 17 -24 17 -30 18 -59 21 -11 1 -10 5 5 16 10 8 24 14 29 15 6
0 5 -4 -2 -8 -9 -6 -7 -11 8 -20 17 -11 20 -10 17 5 -2 13 5 17 31 19 22 1 29
-1 20 -7 -8 -5 -23 -6 -34 -3 -20 6 -20 6 0 -9 13 -10 22 -12 26 -5 4 6 17 7
30 3 17 -4 20 -3 10 3 -7 5 -10 15 -7 21 5 7 -2 11 -18 11 -31 0 -42 16 -25
36 10 13 10 17 -2 25 -20 13 -27 11 -32 -8 -4 -17 -5 -17 -6 0 -1 13 -10 17
-36 17 l-35 0 1 -65z m1354 -486 c-3 -4 2 -13 11 -20 33 -27 57 -99 33 -99 -6
0 -19 -11 -30 -24 -10 -13 -32 -29 -49 -36 -16 -7 -30 -20 -30 -29 0 -11 -3
-12 -8 -4 -4 6 -20 17 -35 22 -19 7 -26 15 -21 23 6 10 4 10 -8 0 -14 -11 -16
-10 -11 7 3 12 9 19 13 16 12 -7 25 15 44 78 10 34 15 70 11 87 -6 28 8 50 20
30 10 -16 25 -2 19 18 -3 9 6 -1 20 -22 14 -22 23 -43 21 -47z m-156 -209 c18
0 45 -39 55 -82 3 -16 13 -28 21 -28 8 0 15 -5 15 -11 0 -5 4 -8 9 -5 4 3 23
-6 42 -20 21 -15 35 -20 38 -13 2 6 -2 16 -8 22 -6 6 -11 20 -11 32 0 12 3 16
8 9 5 -9 10 -9 17 0 15 17 18 56 5 72 -8 9 -9 14 -2 14 6 0 23 -22 38 -50 19
-35 33 -50 48 -50 37 0 48 -16 51 -69 3 -46 1 -51 -19 -51 -11 0 -32 -3 -46
-7 -25 -7 -25 -7 -7 20 15 23 15 27 2 27 -8 0 -15 5 -15 11 0 6 -10 9 -22 7
-20 -3 -23 -8 -20 -41 3 -32 0 -39 -16 -44 -13 -3 -19 -10 -15 -20 5 -13 2
-13 -24 0 -31 17 -93 75 -93 89 0 4 -8 16 -17 27 -69 72 -85 111 -53 131 12 7
12 12 2 22 -6 6 -12 17 -11 23 0 5 3 4 6 -2 2 -7 12 -13 22 -13z m-1016 -476
c17 -9 38 -23 46 -32 17 -17 22 -83 13 -162 -6 -47 -10 -55 -30 -58 -51 -7
-91 68 -92 170 0 102 6 111 63 82z m988 -658 c5 3 9 -7 10 -23 0 -25 1 -26 10
-8 7 15 8 9 3 -20 -7 -49 -64 -164 -137 -276 -30 -46 -78 -127 -107 -179 -54
-99 -55 -99 -35 13 3 15 10 54 15 87 21 118 59 211 128 308 36 50 71 92 79 92
7 0 13 6 14 13 0 9 2 9 6 -1 2 -6 9 -10 14 -6z"/>
<path d="M2429 3297 c-30 -13 -71 -35 -90 -50 -37 -28 -91 -111 -67 -102 8 3
24 -6 36 -20 18 -21 29 -25 50 -20 27 5 27 5 30 -59 1 -35 -2 -76 -8 -91 -9
-24 -13 -26 -48 -20 -28 4 -42 2 -50 -8 -10 -12 -8 -16 9 -20 19 -5 20 -8 9
-21 -10 -14 -9 -16 8 -16 27 0 23 -32 -6 -45 -26 -12 -29 -27 -4 -24 38 3 45
0 32 -16 -7 -8 -8 -15 -2 -15 5 0 12 -9 15 -20 3 -11 10 -20 15 -20 19 0 81
81 75 98 -5 15 -4 15 10 2 13 -13 15 -30 10 -107 -6 -89 -7 -93 -29 -93 -13 0
-24 -5 -24 -11 0 -6 9 -9 20 -6 26 7 47 -18 31 -37 -6 -7 -9 -21 -5 -29 4 -12
-3 -18 -28 -25 -18 -4 -34 -16 -36 -25 -3 -12 1 -15 13 -11 18 7 55 -22 55
-43 0 -7 -7 -13 -15 -13 -18 0 -19 -9 0 -33 7 -11 11 -25 8 -33 -8 -20 -37 -1
-64 43 -13 20 -25 31 -27 24 -6 -18 90 -213 98 -200 5 7 20 -7 40 -35 18 -25
36 -43 40 -41 4 2 24 -13 44 -35 20 -22 41 -40 47 -40 6 0 7 -4 4 -10 -15 -24
-95 -3 -95 25 0 19 -14 19 -30 0 -18 -22 -26 -19 -40 15 -7 17 -15 29 -17 26
-2 -2 3 -21 11 -41 16 -38 13 -61 -6 -49 -6 4 -8 2 -5 -3 7 -11 -20 -40 -28
-31 -3 3 -21 49 -41 104 -47 133 -61 142 -18 13 28 -83 33 -112 28 -148 -7
-43 -7 -43 -20 -20 -7 13 -14 38 -14 54 -1 24 -3 26 -9 11 -7 -18 -8 -18 -24
5 -9 13 -17 37 -18 54 l-1 30 -9 -33 c-6 -21 -6 -46 0 -69 6 -20 8 -39 6 -44
-3 -4 22 -75 55 -157 32 -83 62 -162 66 -176 8 -31 26 -45 33 -25 3 8 11 -22
17 -66 12 -77 13 -73 10 98 -3 162 1 204 18 161 5 -12 9 -14 20 -5 11 9 16 2
26 -36 10 -35 15 -42 20 -27 6 17 8 17 19 -5 7 -13 22 -47 32 -75 18 -49 18
-50 12 -11 l-6 40 21 -26 c11 -14 25 -41 30 -60 8 -26 10 -29 11 -11 1 13 5
21 10 18 5 -4 12 0 15 6 3 7 3 3 0 -9 -3 -13 -1 -23 5 -23 6 0 10 -3 9 -7 -1
-5 2 -30 7 -57 7 -42 5 -51 -11 -63 -16 -12 -19 -11 -26 4 -5 14 -7 12 -7 -9
-1 -18 -6 -28 -16 -28 -14 0 -19 14 -28 70 -3 15 -5 8 -6 -17 l-1 -41 -30 14
c-21 11 -30 23 -31 42 -2 25 -2 25 -6 4 -8 -41 -37 -22 -44 28 -5 36 -6 27 -7
-39 -2 -69 1 -86 16 -98 9 -8 11 -12 5 -8 -7 3 -13 1 -13 -4 0 -6 5 -11 10
-11 6 0 10 -7 10 -15 0 -8 5 -15 10 -15 41 0 207 23 215 30 6 5 21 1 35 -10
14 -11 20 -20 13 -20 -16 0 4 -61 24 -73 7 -4 13 -13 13 -19 0 -7 9 -30 19
-52 10 -23 25 -59 31 -81 7 -22 18 -46 24 -54 9 -12 8 -13 -6 -8 -39 14 -98
59 -125 93 -56 74 -109 115 -225 172 l-117 57 -2 45 c0 25 -4 56 -8 70 -14 53
-114 74 -231 49 -62 -13 -64 -28 -10 -81 22 -22 40 -48 40 -58 0 -10 4 -21 9
-24 16 -10 5 -41 -20 -53 -13 -7 -39 -13 -58 -13 -32 0 -33 -1 -26 -28 4 -15
7 -53 6 -85 l-1 -59 62 -64 c33 -35 57 -64 52 -64 -5 -1 9 -16 31 -35 22 -18
37 -36 34 -39 -3 -3 -44 -9 -91 -14 l-87 -8 -3 45 c-4 57 -31 77 -118 86 l-65
6 53 -54 c47 -47 52 -57 42 -73 -19 -31 -60 -47 -79 -31 -9 7 -36 21 -60 30
-42 16 -46 16 -64 -1 -30 -27 -46 -65 -53 -126 -10 -86 -23 -77 -17 11 5 70 4
76 -10 59 -14 -19 -15 -19 -26 3 -7 12 -10 30 -7 38 5 13 4 13 -8 4 -11 -9
-17 -6 -30 15 -10 14 -15 31 -13 38 6 15 -28 58 -38 48 -4 -4 -6 4 -3 19 3 14
-2 31 -10 39 -13 12 -12 16 8 32 16 13 26 16 34 8 5 -5 16 -10 23 -10 26 0 12
19 -37 50 -42 27 -50 37 -50 62 0 29 -19 58 -39 58 -6 0 -8 6 -5 14 5 12 0 13
-23 7 -28 -7 -28 -8 -34 -108 -4 -55 -9 -121 -13 -147 -4 -25 -5 -46 -3 -46 2
0 18 5 36 11 21 7 30 16 27 25 -3 9 2 14 14 14 11 0 20 -7 20 -15 0 -8 -7 -15
-15 -15 -8 0 -15 -9 -15 -20 0 -12 -10 -24 -22 -30 -13 -5 -18 -9 -13 -10 33
-2 36 -18 12 -53 l-25 -37 -17 26 c-9 14 -19 24 -21 21 -3 -2 -14 -58 -24
-123 -11 -66 -25 -146 -32 -179 l-12 -60 -7 40 c-7 46 -13 29 -10 -30 2 -23
-5 -60 -14 -83 -14 -34 -15 -45 -5 -57 19 -23 31 -18 24 9 -8 31 12 43 37 20
25 -22 24 -31 -3 -40 -13 -4 -25 -10 -28 -14 -3 -5 -14 -10 -25 -12 -20 -3
-45 34 -48 72 -1 11 -6 20 -12 20 -7 0 -10 -17 -9 -45 3 -44 2 -45 -27 -45
-23 0 -29 4 -30 23 0 12 -3 16 -6 10 -10 -26 -23 -12 -24 25 0 20 -9 55 -20
77 l-19 40 3 -62 c2 -55 -1 -65 -21 -79 -12 -8 -33 -17 -46 -20 -20 -3 -25 1
-30 27 -3 17 -3 35 0 40 3 6 1 16 -5 23 -7 8 -9 34 -7 59 3 25 1 59 -3 74 l-8
28 -8 -34 c-8 -39 10 -225 31 -321 9 -36 16 -74 16 -85 1 -21 72 -124 95 -138
22 -13 15 -27 -15 -27 -16 0 -37 -7 -48 -15 -17 -13 8 -14 224 -15 l242 0 0
24 c0 13 -7 29 -16 37 -13 11 -22 10 -57 -9 -23 -12 -54 -22 -69 -22 l-28 0
24 62 c13 35 40 97 61 138 21 41 53 120 72 175 18 55 38 109 44 121 11 22 111
60 129 49 6 -3 10 -1 10 4 0 6 5 11 11 11 5 0 7 -6 4 -12 -4 -7 1 -4 9 6 12
15 16 16 16 5 0 -8 3 -10 8 -4 4 6 16 11 27 12 11 1 36 4 55 6 20 1 41 6 48
11 6 4 12 2 12 -3 0 -6 3 -10 8 -10 24 4 41 -3 46 -19 7 -22 99 -55 129 -46
12 3 30 13 40 22 18 16 23 57 8 66 -5 3 -18 24 -30 47 -12 22 -16 37 -10 33 9
-5 10 -2 6 9 -3 10 -2 17 4 17 6 0 35 12 64 26 30 14 65 27 77 30 13 2 117 35
232 74 116 38 213 70 217 70 24 0 10 -143 -32 -335 -37 -170 -103 -335 -134
-335 -9 0 -23 -4 -33 -10 -25 -14 -104 -35 -124 -32 -10 1 -18 -3 -18 -9 0 -6
-7 -9 -15 -5 -8 3 -15 1 -15 -5 0 -6 -9 -8 -20 -4 -11 4 -20 2 -20 -4 0 -6 -9
-11 -19 -11 -11 0 -23 -5 -27 -11 -4 -8 -9 -7 -15 2 -6 11 -9 10 -14 -3 -4 -9
-13 -14 -21 -11 -8 3 -14 0 -14 -7 0 -7 -8 -9 -20 -5 -11 4 -20 2 -20 -4 0 -6
-7 -8 -15 -5 -8 4 -15 1 -15 -6 0 -7 -8 -9 -20 -5 -11 3 -20 2 -20 -3 0 -6
-18 -13 -40 -17 -22 -4 -40 -11 -40 -16 0 -4 -7 -6 -15 -3 -8 4 -15 2 -15 -3
0 -6 -15 -10 -32 -11 -18 0 -34 -6 -36 -11 -2 -6 -8 -8 -13 -5 -6 3 -16 0 -24
-6 -8 -7 -15 -9 -15 -5 0 4 -6 2 -13 -4 -8 -6 -17 -8 -20 -5 -3 3 -12 2 -19
-2 -7 -5 -15 -9 -18 -10 -3 0 -16 -6 -30 -12 -19 -8 112 -11 505 -10 472 0
520 2 437 13 -51 7 -94 14 -95 16 -2 2 -10 21 -19 41 -10 21 -35 49 -58 64
-42 28 -54 42 -21 24 34 -18 76 -12 101 15 13 14 33 25 44 26 12 0 15 3 9 6
-7 2 -13 13 -13 23 0 25 -16 34 -24 14 -4 -9 -9 -15 -12 -12 -2 3 9 41 26 84
17 44 42 117 55 164 13 47 24 78 24 69 1 -9 -10 -54 -23 -99 l-24 -83 82 7
c88 7 231 30 285 46 30 8 37 6 77 -26 23 -19 54 -51 69 -70 26 -34 66 -46 80
-24 4 6 17 3 33 -7 33 -22 33 -22 107 -119 33 -43 72 -90 87 -102 16 -14 28
-34 28 -48 l0 -24 288 0 287 1 -45 19 c-25 10 -83 33 -129 52 -47 19 -86 39
-88 44 -2 6 14 25 36 42 l40 32 73 -35 c119 -58 122 -60 133 -81 5 -11 20 -32
31 -47 l22 -27 1096 0 1096 0 0 350 0 350 -24 0 c-31 0 -38 10 -21 33 8 12 15
14 20 8 9 -16 25 -13 25 5 0 8 -4 12 -10 9 -5 -3 -10 1 -10 10 0 11 -5 15 -16
11 -12 -5 -14 -1 -9 17 4 12 16 31 26 43 11 11 19 27 19 34 0 8 -11 -2 -25
-23 -37 -54 -83 -98 -90 -87 -3 6 -13 10 -21 10 -8 0 -12 -5 -9 -10 4 -6 11
-8 16 -5 5 4 9 1 9 -5 0 -8 9 -10 27 -6 l26 7 -18 -28 c-26 -40 -57 -65 -75
-60 -11 3 -15 -5 -15 -35 -1 -43 1 -44 52 -23 19 8 47 14 62 14 24 -2 24 -2 3
-6 -13 -3 -38 -14 -55 -26 -18 -12 -52 -31 -75 -41 -46 -21 -50 -27 -27 -46
16 -14 7 -27 -33 -49 -13 -7 -20 -17 -16 -24 4 -7 4 -9 -1 -5 -4 4 -14 3 -20
-2 -8 -7 -24 -5 -49 5 -33 14 -36 14 -36 -1 0 -13 -3 -14 -15 -4 -8 7 -15 9
-15 6 0 -4 -21 5 -47 20 -45 25 -46 25 -20 3 l28 -24 -28 -1 c-15 -1 -22 1
-15 3 10 4 8 9 -5 19 -24 18 -38 18 -23 -1 19 -23 -3 -19 -54 10 -25 14 -48
25 -51 25 -10 0 87 -82 158 -134 37 -28 67 -54 67 -58 0 -9 -123 72 -128 84
-2 5 -10 8 -18 8 -8 0 -14 5 -14 10 0 6 -8 10 -17 9 -11 0 -13 -3 -5 -6 6 -2
12 -12 12 -21 -1 -19 -70 53 -70 72 0 6 -9 17 -19 23 -13 8 -18 19 -14 33 4
16 -2 23 -30 35 -20 8 -48 31 -64 52 -15 20 -57 61 -92 90 l-65 53 -19 -30
c-26 -40 -30 -38 -10 5 16 34 16 36 -6 56 -62 58 -76 166 -40 299 25 93 36
269 20 327 -12 43 -41 70 -64 57 -6 -4 -9 -4 -5 1 4 4 -3 15 -14 25 -22 17
-23 17 -68 -56 -74 -120 -309 -414 -340 -426 -9 -3 -36 4 -61 16 -24 13 -52
20 -61 17 -22 -8 -98 -80 -98 -92 0 -6 -4 -8 -9 -5 -5 3 -11 -1 -15 -9 -3 -8
-12 -15 -21 -15 -8 0 -15 -7 -15 -16 0 -9 -10 -24 -22 -35 -23 -19 -43 -25
-34 -11 2 4 -4 8 -15 8 -10 0 -19 -4 -19 -8 0 -4 -10 -8 -22 -8 -22 0 -20 -9
4 -14 7 -2 26 -8 41 -14 16 -7 31 -12 35 -12 11 0 62 -50 62 -60 0 -6 -7 -10
-15 -10 -8 0 -15 4 -15 10 0 15 -59 42 -78 36 -9 -3 -30 -2 -47 3 -16 5 -22
10 -13 10 11 1 15 6 12 16 -5 11 -11 12 -25 4 -11 -5 -17 -14 -14 -20 4 -5 -5
-9 -19 -9 -32 0 -33 11 -4 30 28 19 45 39 105 120 41 55 94 101 168 145 24 15
9 42 -31 55 -19 7 -32 16 -29 21 4 5 -1 9 -10 9 -9 0 -13 5 -9 11 6 11 89 8
140 -4 15 -4 30 3 45 20 41 43 261 396 319 513 27 54 33 77 34 136 1 81 9 95
75 129 63 32 126 114 118 155 -7 35 9 86 29 94 18 7 18 26 0 26 -20 0 -29 35
-17 59 16 29 14 34 -19 53 -50 29 -42 62 38 146 l67 71 14 -37 c7 -20 13 -45
14 -55 2 -20 22 -17 22 4 0 8 6 21 13 30 15 17 16 17 216 -20 61 -12 111 -21
113 -21 2 0 3 -5 3 -11 0 -5 -6 -7 -12 -4 -7 4 -4 -1 6 -9 14 -11 22 -13 27
-5 4 6 8 4 11 -8 3 -10 9 -26 13 -35 5 -12 3 -18 -6 -18 -21 -1 -71 -79 -66
-101 3 -12 0 -19 -10 -19 -10 0 -13 -6 -9 -16 4 -10 -7 -34 -27 -63 -19 -25
-37 -58 -41 -73 -14 -58 -124 -138 -190 -138 -24 0 -27 -3 -16 -10 8 -5 32
-10 53 -10 35 0 37 -2 33 -27 -3 -14 -11 -30 -18 -35 -11 -8 -11 -10 0 -15 10
-4 10 -8 2 -18 -7 -8 -10 -22 -7 -32 4 -16 6 -16 12 3 3 11 20 28 36 38 27 16
28 16 22 0 -4 -11 -3 -15 5 -10 6 3 14 -3 18 -16 4 -13 2 -24 -4 -26 -5 -1 -9
-11 -7 -20 1 -9 0 -11 -2 -4 -6 17 -22 15 -29 -3 -6 -14 -8 -13 -20 2 -12 16
-13 15 -14 -15 0 -18 4 -42 10 -52 5 -10 12 -37 15 -61 4 -42 4 -43 -11 -24
-15 19 -16 18 -12 -17 2 -20 0 -34 -4 -32 -12 7 -10 -14 7 -75 10 -40 11 -59
3 -74 -8 -17 -8 -19 5 -14 18 7 13 -18 -10 -44 -7 -9 -10 -19 -6 -23 5 -4 1
-6 -7 -4 -10 2 -14 -3 -12 -14 2 -11 -9 -25 -30 -37 -37 -22 -70 -52 -64 -58
2 -3 32 18 67 46 35 28 67 51 72 51 4 0 6 4 2 9 -3 6 2 14 12 20 18 10 22 67
14 196 -2 28 0 59 5 69 5 14 4 17 -4 12 -7 -4 -12 -1 -12 9 0 20 16 11 31 -17
8 -15 8 -19 0 -14 -13 9 -15 -6 -2 -20 6 -5 11 -30 13 -56 2 -25 7 -44 11 -41
5 3 6 16 3 29 -10 37 7 28 28 -15 11 -23 17 -52 14 -70 -6 -38 -3 -39 16 -3
l15 27 2 -30 c0 -16 0 -41 0 -55 -3 -39 31 -63 93 -68 45 -4 53 -7 49 -22 -4
-16 41 -120 53 -120 3 0 2 6 -1 13 -7 13 15 -12 67 -76 17 -21 33 -35 36 -32
3 3 -4 15 -15 28 -46 50 -75 110 -77 158 -1 51 10 74 24 48 5 -9 26 -29 46
-44 l37 -28 -27 39 c-14 21 -26 44 -26 50 0 7 -6 14 -12 17 -10 3 -10 10 1 28
8 13 20 34 26 47 11 21 13 19 19 -24 3 -25 3 -50 0 -55 -3 -5 1 -9 9 -9 17 0
37 62 30 90 -3 12 2 29 12 40 27 30 38 24 19 -11 -15 -30 -15 -31 1 -25 13 5
16 2 11 -10 -17 -44 -18 -64 -4 -59 10 4 19 -6 28 -34 11 -33 10 -45 -4 -83
-22 -58 -18 -141 6 -146 12 -2 16 1 13 11 -7 17 27 113 40 110 5 -1 15 -21 21
-44 7 -24 20 -47 29 -51 10 -6 13 -17 9 -32 -4 -17 3 -32 30 -61 l36 -38 0 73
c0 57 -4 75 -17 85 -15 11 -16 15 -3 31 13 16 13 17 -1 12 -12 -5 -22 6 -37
38 -20 40 -20 44 -4 44 26 0 42 -14 52 -46 7 -20 8 -1 5 66 -3 52 -4 102 -3
110 0 8 2 432 4 942 l4 926 -27 5 c-16 3 -50 6 -77 6 -26 1 -52 4 -56 6 -5 3
-42 6 -82 6 -58 1 -95 -6 -171 -31 -101 -34 -149 -59 -114 -60 10 0 15 -5 12
-10 -4 -6 -12 -7 -18 -3 -7 4 -6 0 2 -10 7 -9 10 -17 5 -18 -57 -7 -84 -4 -84
8 0 10 -36 13 -180 13 l-179 0 -21 -70 c-12 -39 -19 -79 -16 -88 5 -16 -9 -51
-17 -42 -2 3 -21 39 -42 80 -50 98 -97 155 -145 174 -66 26 -175 45 -211 37
-55 -13 -196 -70 -221 -90 -13 -10 -40 -26 -60 -34 -30 -12 -43 -28 -69 -79
-17 -35 -35 -64 -40 -66 -5 -2 -9 -9 -9 -15 0 -6 21 11 47 38 l46 50 13 -55
c7 -34 12 -45 14 -30 1 23 3 22 15 -10 18 -47 18 -90 0 -134 -8 -20 -15 -38
-15 -41 0 -3 0 -9 0 -15 0 -5 -16 -10 -36 -10 -29 0 -44 -8 -85 -51 -27 -27
-52 -62 -55 -77 -13 -53 -40 -68 -50 -28 -3 15 1 34 11 50 10 14 15 32 12 41
-4 8 1 35 10 61 l16 47 14 -27 c12 -23 17 -25 29 -15 8 7 11 15 6 18 -14 10
-25 64 -11 55 9 -5 10 0 6 17 -4 13 -7 37 -7 52 0 16 -4 26 -10 22 -5 -3 -10
-3 -10 2 -1 12 -10 82 -20 147 -5 33 -13 63 -17 67 -4 4 -78 4 -163 0 l-154
-6 -9 -37 c-8 -35 -11 -37 -55 -40 -44 -3 -46 -4 -56 -43 -11 -39 -12 -40 -66
-46 -30 -3 -50 -7 -45 -8 6 -1 2 -6 -7 -12 -10 -5 -25 -34 -34 -64 -15 -55
-16 -55 -55 -55 -39 0 -40 -1 -25 -21 12 -17 12 -24 3 -34 -17 -17 -93 -24
-162 -14 -55 7 -98 -1 -93 -19 3 -12 -13 -86 -24 -106 -10 -18 -12 -18 -22 -4
-7 9 -28 18 -46 20 -48 4 -48 28 -1 57 29 18 38 29 35 45 -2 11 -1 15 2 8 5
-10 9 -10 20 -1 11 9 14 8 14 -7 0 -15 4 -13 19 10 14 20 18 39 14 62 -4 22
-2 34 6 34 15 0 14 37 -1 37 -7 0 -33 10 -58 20 -44 20 -46 23 -74 107 -16 47
-35 86 -41 86 -7 0 -15 6 -18 14 -8 19 -275 10 -298 -11 -9 -7 -33 -16 -52
-20 -20 -3 -45 -14 -57 -25 -11 -10 -25 -16 -30 -13 -6 3 -10 1 -10 -4 0 -16
-100 -14 -104 2 -33 112 -83 177 -170 218 -80 38 -174 40 -257 6z m3290 -370
c10 -23 26 -48 35 -56 9 -7 16 -22 16 -32 0 -11 5 -19 10 -19 6 0 10 -7 10
-17 0 -9 11 -39 24 -67 13 -28 27 -64 30 -81 l8 -30 -32 30 c-31 29 -32 29
-25 6 5 -16 4 -21 -4 -17 -6 4 -11 0 -11 -8 0 -20 66 -93 91 -101 11 -4 16
-11 13 -17 -9 -15 -142 -1 -170 17 -14 9 -24 10 -26 4 -2 -6 -24 -7 -58 -3
-50 6 -58 11 -87 50 -38 50 -44 24 53 236 53 118 59 127 81 122 18 -5 22 -3
17 10 -14 36 8 13 25 -27z m-981 -209 c2 -10 -4 -15 -15 -14 -24 2 -30 -42 -8
-58 16 -11 16 -15 0 -62 -9 -27 -17 -58 -18 -68 -1 -10 -9 -21 -19 -24 -10 -2
-18 -9 -18 -14 0 -5 -5 -6 -10 -3 -6 4 -8 11 -5 16 4 5 -5 13 -18 18 -13 5
-27 17 -30 25 -4 9 -14 16 -23 16 -24 0 -11 24 15 28 20 3 23 8 19 35 -6 39
-1 57 18 57 8 0 14 7 14 15 0 18 12 19 28 3 18 -18 27 -1 14 26 -6 13 -8 26
-6 29 10 10 59 -10 62 -25z m-743 -30 c4 -11 8 -49 10 -82 1 -34 8 -80 15
-103 15 -50 3 -73 -39 -73 -50 0 -56 11 -43 83 7 35 12 83 12 105 0 73 30 119
45 70z m-955 -88 c115 -33 234 -60 270 -61 25 -1 28 -3 11 -6 -20 -4 -15 -10
40 -43 34 -22 72 -50 83 -64 12 -13 33 -32 48 -41 l27 -17 7 38 c4 21 13 44
20 51 20 20 68 27 81 11 7 -7 23 -65 38 -128 22 -96 31 -120 58 -147 17 -18
38 -33 47 -33 20 0 68 -47 93 -89 l18 -31 -33 0 c-18 0 -47 -4 -65 -9 -26 -7
-31 -7 -26 5 3 8 11 14 19 14 8 0 14 5 14 10 0 18 -23 10 -52 -17 -25 -24 -30
-25 -55 -14 -27 12 -27 12 -10 -6 9 -11 17 -26 17 -34 0 -8 -16 2 -35 24 -20
20 -38 37 -42 37 -15 0 -43 35 -43 54 0 17 2 18 10 6 5 -8 10 -10 10 -5 0 6
12 -3 26 -20 13 -16 22 -22 18 -12 -7 20 -1 21 29 6 22 -12 22 -12 3 10 -13
14 -23 18 -30 11 -7 -7 -17 -3 -33 12 -26 25 -32 61 -8 52 11 -4 13 -2 9 9 -7
20 13 32 32 17 36 -31 -14 38 -55 75 l-44 40 31 -44 c35 -49 33 -75 -4 -40
-28 26 -31 19 -8 -16 20 -31 12 -74 -13 -71 -14 2 -19 14 -21 51 -3 44 -31
100 -50 100 -4 0 -12 4 -18 8 -7 4 -16 -5 -24 -23 -12 -28 -20 -34 -37 -27 -3
1 -12 -14 -18 -33 -12 -34 -12 -32 -22 60 -9 82 -10 87 -12 38 0 -31 -6 -60
-13 -64 -8 -5 -9 3 -5 29 3 21 2 37 -4 37 -5 0 -9 -28 -10 -62 -1 -59 -1 -61
-10 -28 -29 107 -52 180 -56 176 -2 -2 9 -55 25 -117 29 -111 49 -223 34 -186
-4 10 -12 18 -17 17 -5 0 -17 32 -27 72 -35 136 -39 150 -43 146 -2 -2 7 -49
20 -103 28 -115 30 -141 12 -148 -9 -3 -18 20 -31 82 -18 88 -55 215 -62 209
-1 -2 5 -37 15 -78 11 -41 31 -129 46 -195 15 -66 30 -126 32 -132 3 -7 1 -13
-4 -13 -18 0 -43 65 -63 163 -11 54 -24 106 -30 115 -8 14 -9 12 -5 -8 25
-117 32 -169 22 -179 -8 -8 -7 -11 4 -11 8 0 20 -17 27 -40 15 -48 16 -94 2
-85 -5 3 -10 15 -10 26 0 10 -4 19 -9 19 -11 0 -33 98 -25 111 3 6 1 15 -4 22
-13 16 -53 153 -59 202 -3 22 -8 43 -12 47 -8 9 -7 -73 1 -87 26 -44 71 -272
58 -294 -8 -13 -9 -14 -9 -1 -1 8 -15 65 -32 126 l-32 112 -42 5 c-22 4 -54
13 -70 21 -33 17 -48 12 -40 -14 4 -14 -15 -42 -73 -105 l-80 -86 19 -62 c25
-81 30 -90 23 -46 -3 20 -2 39 4 43 18 11 78 -166 70 -208 -3 -14 0 -27 5 -29
6 -2 7 -9 3 -16 -6 -9 -11 -8 -23 6 -13 17 -14 16 -10 -12 2 -16 5 -34 7 -40
6 -24 -1 -85 -10 -85 -5 0 -10 8 -10 17 0 26 -74 296 -78 284 -2 -5 6 -40 17
-78 11 -37 23 -94 26 -125 4 -32 11 -55 16 -52 5 3 9 -2 9 -11 0 -10 -5 -13
-12 -9 -8 5 -9 -2 -4 -27 12 -52 12 -62 1 -66 -9 -3 -26 58 -49 167 -2 8 -6
22 -9 30 -9 23 -37 192 -37 220 0 14 -11 39 -25 55 -23 29 -24 29 -18 5 6 -22
5 -23 -8 -10 -8 9 -19 25 -26 37 -11 20 -10 21 25 18 20 -1 41 -9 46 -18 8
-12 20 1 58 66 26 45 55 87 63 93 8 6 15 14 15 18 0 4 -12 -2 -27 -13 -14 -12
-28 -19 -31 -16 -8 8 28 56 38 50 6 -4 10 6 10 22 0 36 15 61 23 40 3 -8 3
-24 1 -35 -4 -12 0 -22 11 -26 15 -5 17 -2 11 26 -12 58 -25 141 -30 200 -3
32 -17 84 -31 117 -39 94 -40 94 63 86 48 -4 116 -15 152 -25z m1736 -157 c-4
-16 -8 -48 -9 -73 -2 -39 -5 -45 -22 -42 -11 2 -51 3 -90 3 -82 0 -105 5 -105
24 0 29 51 50 119 50 58 0 66 2 69 20 5 24 21 45 34 45 6 0 8 -12 4 -27z
m-1726 -410 c12 -32 24 -73 27 -90 3 -18 9 -33 13 -33 13 0 22 -102 10 -114
-6 -6 -10 -7 -9 -1 3 10 -32 108 -36 103 -2 -2 3 -32 10 -67 13 -62 11 -91 -6
-91 -5 0 -9 6 -9 14 0 8 -16 65 -35 126 -35 112 -43 160 -26 160 5 0 16 -17
25 -37 9 -21 14 -27 10 -13 -13 51 -16 100 -6 100 6 0 20 -26 32 -57z m3031
-63 c-18 -17 -30 -30 -25 -30 4 0 -6 -15 -23 -32 -17 -18 -33 -46 -37 -63 l-6
-30 16 30 c9 17 23 38 32 48 16 18 37 24 27 7 -11 -17 5 -67 21 -67 9 0 13 6
10 14 -5 12 18 60 35 73 3 3 9 15 13 28 4 12 11 22 16 22 9 0 6 -47 -4 -57 -3
-3 -1 -12 5 -19 6 -8 7 -14 0 -18 -6 -4 -8 -14 -5 -24 5 -14 4 -15 -5 -2 -8
12 -13 8 -25 -21 -8 -20 -13 -45 -10 -56 4 -13 -3 -29 -18 -44 -17 -18 -23
-34 -22 -61 1 -21 -3 -38 -8 -38 -31 0 -59 -68 -64 -150 -3 -69 -17 -120 -37
-132 -14 -9 -43 -11 -34 -2 3 3 -3 21 -14 40 -22 41 -25 77 -5 93 10 9 17 6
30 -13 9 -14 16 -30 16 -36 0 -5 5 -10 10 -10 19 0 -2 53 -42 109 -21 30 -38
61 -38 70 0 9 -16 33 -35 54 -18 20 -31 37 -28 37 3 0 1 6 -4 13 -6 6 -13 25
-17 42 -4 16 -23 54 -42 85 -43 69 -44 90 -6 84 113 -17 142 -27 142 -48 0
-24 16 -53 24 -45 5 5 14 42 15 66 1 7 17 19 36 27 19 8 38 22 41 31 3 8 11
15 16 15 5 0 21 9 35 20 40 31 52 23 14 -10z m-3077 -95 c26 -77 43 -205 28
-205 -4 0 -15 24 -24 53 -11 33 -15 39 -11 17 9 -53 9 -69 -2 -70 -13 -2 -68
199 -60 219 5 13 9 11 20 -9 17 -30 19 -22 5 15 -11 28 -3 82 10 68 4 -4 20
-44 34 -88z m1121 -343 c-3 -13 -2 -21 3 -18 28 17 39 -145 14 -204 -6 -14
-11 -18 -12 -10 0 12 -2 12 -9 2 -7 -11 -9 -11 -14 2 -4 9 -3 15 1 15 20 -3
36 2 27 9 -6 4 -19 21 -29 37 -10 17 -30 43 -45 58 -20 22 -23 31 -15 45 6 9
17 17 24 17 7 0 15 7 17 15 4 12 2 12 -5 2 -7 -10 -11 -10 -21 1 -17 22 35 83
56 66 9 -8 12 -21 8 -37z m-181 14 c6 -6 13 -20 14 -31 2 -10 15 -32 28 -48
13 -16 27 -41 30 -55 12 -55 28 -84 62 -112 20 -16 39 -27 43 -25 4 3 9 -4 12
-15 4 -17 14 -20 60 -20 31 0 59 5 63 11 3 6 22 9 40 7 38 -4 40 0 21 40 -16
34 -16 88 0 85 17 -4 26 52 13 77 -27 50 -22 55 46 55 35 0 64 -3 64 -7 0 -5
-6 -8 -14 -8 -15 0 -28 -24 -19 -34 4 -3 17 -6 30 -6 19 0 24 -7 29 -40 4 -22
11 -40 16 -40 5 0 6 6 2 13 -5 8 -4 9 4 2 15 -14 16 -39 8 -137 -7 -74 -11
-87 -28 -91 -11 -3 -17 -10 -14 -15 8 -13 -46 -18 -129 -11 l-70 5 90 4 c56 2
71 5 40 6 -134 8 -363 27 -475 40 -222 25 -246 27 -235 17 11 -11 150 -29 303
-39 56 -4 102 -8 102 -9 0 -1 -7 -16 -16 -33 -8 -18 -14 -44 -13 -60 3 -33
-88 -181 -112 -181 -22 -1 -33 40 -30 109 3 62 11 70 62 70 19 0 44 7 55 16
18 14 14 15 -43 9 l-63 -6 0 36 c0 35 0 35 -45 35 l-45 0 0 -95 c0 -78 3 -95
15 -95 8 0 15 -4 15 -10 0 -5 -7 -10 -15 -10 -12 0 -14 -7 -9 -26 6 -23 5 -25
-12 -16 -11 6 -30 22 -43 36 -22 23 -23 31 -20 123 4 93 3 98 -16 98 -18 0
-20 -8 -23 -77 -2 -43 -6 -78 -10 -78 -5 0 -26 18 -47 40 -57 58 -196 149
-268 175 -62 23 -63 26 -7 52 24 11 24 11 -7 6 -32 -5 -33 -4 -33 29 0 19 6
40 13 47 10 11 9 12 -2 6 -9 -5 -12 -4 -7 3 4 6 26 11 50 10 23 0 52 3 64 6
19 6 22 4 22 -21 0 -15 4 -33 8 -38 7 -11 142 -45 174 -45 12 0 39 44 89 146
l73 145 50 -7 c27 -3 55 -11 60 -18z m76 -730 c0 -8 16 -27 35 -42 19 -14 32
-30 29 -35 -3 -5 6 -4 19 2 28 13 82 -10 129 -54 15 -14 33 -27 40 -30 8 -3 6
-6 -5 -6 -10 -1 -33 11 -52 25 -18 14 -46 26 -62 26 -32 1 -73 -17 -73 -32 0
-5 -7 -7 -15 -4 -8 4 -15 2 -15 -3 0 -11 -26 -10 -52 2 -14 5 -15 10 -5 26 9
14 9 21 -1 31 -15 15 -16 47 -2 82 10 28 30 35 30 12z m1045 -292 c142 -46
265 -84 272 -84 7 0 13 -4 13 -10 0 -5 6 -7 13 -4 26 9 16 -58 -14 -103 -16
-23 -29 -46 -29 -52 0 -6 -5 -11 -11 -11 -9 0 3 25 49 98 8 12 13 25 10 27 -7
7 -133 -207 -132 -223 2 -14 -13 -16 -18 -2 -1 5 -53 18 -114 28 -114 20 -180
48 -376 164 -38 23 -72 37 -79 32 -7 -4 -9 -3 -6 3 8 13 -25 23 -79 23 -23 0
-55 3 -73 6 l-31 6 48 37 c26 21 67 50 92 65 25 15 69 43 99 61 40 26 61 33
80 28 14 -3 143 -43 286 -89z"/>
<path d="M46 1072 c-7 -12 74 -172 86 -172 6 0 8 -3 5 -7 -4 -3 -1 -13 7 -22
7 -9 19 -33 25 -53 7 -21 18 -41 25 -45 6 -5 20 -37 30 -73 10 -36 22 -74 27
-85 5 -11 22 -72 39 -135 17 -63 33 -123 36 -132 4 -12 0 -15 -16 -11 -13 3
-20 1 -20 -8 1 -23 24 -46 40 -41 13 5 13 3 1 -11 -21 -26 -30 -21 -50 26 -15
33 -20 38 -26 25 -10 -24 -25 -13 -25 18 0 14 -10 35 -21 47 l-22 22 7 -27
c12 -53 -11 -28 -29 30 -9 31 -28 93 -41 137 -29 97 -43 125 -61 125 -7 0 -12
3 -11 8 3 9 -22 71 -39 97 -12 18 -13 17 -13 -11 0 -17 8 -41 19 -53 19 -21
36 -95 26 -111 -3 -5 -14 -7 -25 -5 -18 3 -20 -2 -20 -49 0 -52 20 -89 38 -72
4 4 0 12 -9 16 -14 8 -16 18 -10 66 1 13 38 11 52 -3 6 -6 12 -29 12 -51 1
-22 6 -37 11 -34 5 3 7 -2 3 -10 -3 -9 0 -21 6 -27 8 -8 6 -11 -7 -11 -9 0
-14 -5 -11 -10 12 -20 -19 -5 -42 20 l-22 25 -1 -23 c0 -13 -4 -20 -10 -17 -7
4 -10 -68 -10 -209 l0 -216 355 0 355 0 -16 24 c-8 14 -21 23 -28 20 -12 -4
-56 74 -56 100 0 24 -51 176 -60 176 -4 0 -11 21 -15 47 -4 27 -14 64 -22 83
-8 19 -17 46 -19 59 -3 13 -14 41 -24 62 -11 21 -20 49 -20 62 0 37 -28 122
-49 149 -11 14 -27 54 -36 90 -11 43 -29 81 -53 111 -37 46 -60 62 -43 30 5
-10 19 -43 31 -73 12 -30 33 -69 45 -86 13 -17 35 -71 48 -120 26 -93 44 -147
58 -176 5 -10 9 -28 9 -40 0 -22 21 -94 67 -228 29 -85 62 -193 70 -229 4 -16
2 -22 -5 -17 -6 3 -14 1 -18 -5 -4 -8 -11 -3 -20 12 -7 13 -21 24 -31 25 -10
1 -26 2 -36 3 -10 0 -24 16 -33 36 -18 44 -18 59 1 51 8 -3 15 -1 15 4 0 6 -9
10 -20 10 -20 0 -32 20 -46 75 -4 15 -2 25 4 25 6 0 13 -10 15 -22 4 -16 5
-13 4 7 -2 22 -7 29 -18 27 -13 -2 -25 26 -57 125 -22 71 -43 142 -46 158 -10
43 -47 136 -68 167 -10 14 -18 33 -18 41 0 9 -5 19 -10 22 -6 4 -8 11 -5 16 4
5 -1 12 -9 15 -9 3 -16 13 -16 21 0 8 -4 12 -9 9 -9 -6 -26 40 -22 58 1 5 -12
37 -30 71 -30 59 -63 93 -73 77z"/>
</g>
</svg>
