<?xml version="1.0" standalone="no"?>
<!DOCTYPE svg PUBLIC "-//W3C//DTD SVG 20010904//EN"
 "http://www.w3.org/TR/2001/REC-SVG-20010904/DTD/svg10.dtd">
<svg version="1.0" xmlns="http://www.w3.org/2000/svg"
 width="275.000000pt" height="183.000000pt" viewBox="0 0 275.000000 183.000000"
 preserveAspectRatio="xMidYMid meet">
<metadata>
Created by potrace 1.15, written by Peter Selinger 2001-2017
</metadata>
<g transform="translate(0.000000,183.000000) scale(0.100000,-0.100000)"
fill="#000000" stroke="none">
<path d="M1260 1572 l0 -89 -132 3 c-73 2 -183 7 -245 10 l-112 7 -4 56 c-2
37 -4 29 -3 -26 0 -51 4 -84 10 -84 6 -1 18 -3 26 -3 15 -2 94 -13 143 -21 15
-3 27 0 27 5 0 6 -19 10 -42 11 -24 0 -52 5 -63 10 -12 5 58 7 187 3 l207 -6
5 23 c10 47 13 180 5 185 -5 3 -9 -35 -9 -84z"/>
<path d="M2678 1493 c-32 -3 -48 -9 -48 -18 0 -7 6 -15 13 -18 9 -3 12 -42 11
-150 0 -114 3 -147 13 -147 7 0 13 7 13 15 0 9 9 15 25 15 29 0 33 26 10 75
l-14 30 5 -30 6 -30 -21 25 c-15 19 -21 39 -21 83 l0 57 40 0 40 0 0 50 c0 34
-4 49 -12 48 -7 -1 -34 -3 -60 -5z"/>
<path d="M2105 1318 c-52 -19 -84 -48 -94 -85 -9 -31 -6 -48 15 -107 41 -113
40 -115 -5 -67 -40 43 -42 44 -56 25 -24 -32 -17 -42 39 -60 47 -15 56 -22 75
-61 12 -25 27 -43 33 -41 15 5 29 66 21 92 -4 15 -1 18 16 13 14 -3 33 6 63
32 60 52 100 76 121 73 9 -2 17 2 17 7 0 6 -6 12 -12 12 -18 2 -21 1 -40 -6
-16 -6 -17 -1 -13 51 5 54 4 62 -22 91 -22 25 -38 32 -78 37 -27 3 -63 0 -80
-6z"/>
<path d="M268 1313 c-10 -2 -21 -15 -24 -29 -6 -22 -11 -24 -65 -24 -43 0 -57
3 -53 13 3 9 -7 12 -38 9 -96 -7 -88 8 -88 -172 l0 -160 31 0 c30 0 31 1 24
39 -6 37 -5 39 17 35 21 -5 21 -4 4 6 -17 11 -16 13 10 31 41 27 62 24 62 -6
0 -28 -13 -33 -22 -10 -3 8 -12 12 -21 9 -16 -6 -12 -47 7 -71 6 -7 4 -13 -4
-16 -7 -2 -2 -2 12 0 14 3 28 10 33 16 5 9 12 6 22 -7 8 -11 15 -14 15 -7 0 7
5 9 10 6 6 -3 22 8 37 25 15 18 32 37 38 44 12 12 34 53 56 101 7 17 15 34 18
39 2 5 -3 7 -12 3 -14 -5 -15 -3 -4 13 6 11 15 20 19 20 4 0 5 7 2 15 -4 8 -1
22 6 30 6 8 9 23 5 35 -5 16 -14 20 -43 19 -20 -1 -45 -3 -54 -6z"/>
<path d="M616 1245 c39 -51 54 -79 21 -40 -14 17 -33 31 -44 31 -10 1 -25 5
-35 9 -13 5 -17 -2 -23 -35 -8 -48 12 -133 29 -127 6 3 10 10 8 16 -1 6 7 21
18 33 17 19 20 19 21 5 3 -37 4 -40 17 -45 7 -2 13 2 11 9 -5 41 2 71 15 66
17 -7 29 19 19 37 -5 7 -26 28 -48 47 l-40 34 31 -40z"/>
<path d="M920 1259 c0 -7 10 -23 22 -36 21 -23 13 -34 -10 -11 -6 6 -15 9 -18
5 -10 -10 17 -39 31 -33 13 5 14 3 17 -82 2 -34 0 -62 -4 -62 -3 0 -15 -15
-25 -32 l-19 -33 35 -22 c31 -19 33 -22 14 -23 -13 0 -23 4 -23 9 0 13 -43 22
-55 10 -5 -5 -14 -29 -20 -52 -6 -26 -16 -42 -25 -42 -9 0 -14 7 -12 20 2 11
3 30 3 43 -1 13 3 31 7 40 6 12 0 24 -18 42 l-26 25 1 -41 c1 -23 5 -46 8 -52
4 -5 1 -12 -7 -15 -8 -3 -29 11 -49 34 -38 41 -61 49 -71 23 -7 -19 13 -94 26
-94 4 0 8 -5 8 -11 0 -6 23 -43 50 -83 34 -50 50 -82 50 -104 0 -23 5 -32 16
-32 13 0 15 7 11 35 l-6 35 40 0 40 0 -7 -35 c-3 -19 -2 -35 2 -35 31 -2 226
-21 260 -26 l42 -6 13 51 c12 49 14 51 26 29 16 -30 16 -38 -1 -38 -8 0 -17
-7 -20 -16 -9 -23 -8 -24 14 -24 11 0 19 3 18 8 -1 4 4 20 11 36 10 24 16 28
41 24 16 -3 31 0 34 6 2 6 3 -9 3 -33 -1 -26 3 -46 10 -48 8 -3 10 8 6 35 -4
32 -1 43 22 68 19 20 25 23 21 10 -6 -16 -4 -17 9 -6 19 16 19 22 -3 46 -20
21 -22 26 -22 49 0 8 -7 15 -16 15 -26 0 -9 25 22 31 l29 6 -30 5 c-16 3 18 6
76 7 l107 1 46 -115 c25 -63 46 -117 46 -119 0 -3 -19 -7 -42 -9 -27 -2 -14
-4 33 -5 85 -2 106 12 66 45 -23 19 -25 25 -34 81 -5 27 -3 31 10 26 15 -5 15
-2 5 27 -10 28 -12 30 -23 16 -7 -10 -24 -17 -39 -17 -21 0 -26 4 -22 18 2 9
7 35 11 57 8 50 29 75 83 99 82 37 34 71 -85 60 -74 -7 -76 -8 -89 -41 -8 -19
-12 -38 -9 -44 4 -5 3 -19 -1 -32 -8 -21 -8 -20 -15 8 l-7 30 -1 -27 c-1 -32
-21 -39 -21 -8 0 11 -7 20 -15 20 -13 0 -16 11 -14 50 2 28 -3 56 -9 62 -9 9
-12 7 -12 -10 0 -12 -4 -22 -9 -22 -5 0 -12 -20 -15 -45 -10 -61 -10 -59 16
-67 13 -3 -16 -6 -64 -7 -66 -1 -86 2 -83 12 4 9 -20 12 -102 11 -60 -1 -91 1
-70 5 36 6 37 7 23 26 -21 28 -22 52 -1 35 9 -7 18 -10 22 -7 8 9 -17 38 -28
31 -5 -3 -9 4 -9 14 0 12 -11 24 -30 32 -17 7 -35 20 -40 29 -7 13 -9 10 -10
-12 0 -17 -4 -26 -10 -22 -6 4 -8 15 -5 25 3 10 0 22 -6 26 -8 4 -9 3 -5 -4 4
-7 4 -17 0 -23 -9 -16 -24 10 -24 44 0 15 -4 27 -9 27 -6 0 -11 19 -13 41 -2
30 -9 46 -25 57 -18 11 -23 12 -23 1z"/>
<path d="M2739 1058 c-1 -13 -1 -29 0 -36 3 -21 -28 -45 -47 -36 -24 11 -112
13 -112 3 0 -5 7 -9 15 -9 17 0 20 -25 5 -35 -18 -11 -11 -35 11 -35 11 0 17
-4 14 -10 -3 -5 -14 -10 -25 -10 -26 0 -31 -70 -9 -140 14 -46 21 -55 39 -53
12 2 19 -1 15 -7 -3 -6 -2 -10 3 -10 19 0 34 31 34 68 0 22 8 51 19 68 10 16
19 24 19 18 0 -7 6 -14 14 -17 10 -4 13 21 15 129 1 74 0 134 -3 134 -3 0 -7
-10 -7 -22z"/>
<path d="M2134 908 c-19 -23 -19 -23 2 -5 11 9 26 17 33 17 20 0 71 -43 71
-60 0 -8 8 -23 18 -32 53 -49 65 -88 33 -110 -10 -7 -42 -41 -71 -76 -28 -34
-56 -59 -62 -56 -6 4 -5 -3 2 -15 6 -12 9 -27 6 -34 -2 -7 -5 -4 -5 6 -1 14
-7 17 -23 13 -13 -3 -17 -3 -10 0 6 3 12 10 12 14 0 5 -19 0 -42 -10 -56 -25
-68 -25 -97 6 -13 14 -30 23 -38 19 -8 -3 -20 -5 -26 -5 -7 0 -4 -7 7 -15 17
-13 17 -14 -10 -12 -22 2 -29 -2 -29 -17 0 -18 -7 -20 -60 -18 -46 1 -55 -1
-37 -8 30 -13 28 -17 -7 -12 -29 4 -46 25 -35 43 3 5 0 9 -6 9 -8 0 -10 -9 -7
-23 8 -27 -1 -42 -30 -49 -13 -4 -24 -1 -27 8 -3 8 -1 14 4 14 6 0 10 5 10 12
0 6 -10 3 -22 -8 -18 -16 -20 -16 -15 -3 5 15 -18 17 -234 24 -131 4 -239 11
-239 16 0 5 6 9 13 10 32 2 -34 18 -75 18 -37 1 -48 5 -48 17 0 18 3 18 -215
-2 -73 -6 -127 6 -123 28 2 7 -14 17 -35 22 -20 5 -37 15 -37 22 0 7 -9 15
-19 19 -11 3 -23 14 -26 24 -3 10 -19 30 -35 46 l-30 29 0 -25 c0 -23 -1 -23
-31 11 -18 20 -26 26 -20 13 8 -15 8 -24 1 -28 -7 -4 -4 -13 8 -23 17 -15 18
-21 7 -57 -14 -47 -34 -88 -83 -167 -34 -56 -34 -58 -18 -83 17 -25 13 -71 -4
-60 -5 3 -12 -5 -15 -17 -4 -13 -17 -33 -28 -46 l-22 -23 32 -62 c17 -34 39
-95 49 -134 16 -72 24 -80 58 -67 12 5 16 20 16 60 l0 54 60 0 c72 0 80 -11
51 -69 -12 -22 -21 -43 -21 -46 0 -3 144 -5 320 -5 176 0 320 3 320 8 -1 38
-33 147 -46 157 -15 10 -15 17 -3 64 9 37 10 60 3 79 l-10 27 58 0 c32 0 58
-4 58 -8 0 -4 8 -7 18 -5 13 2 18 -5 20 -37 5 -64 -7 -123 -26 -128 -16 -4
-16 -5 1 -6 15 -1 17 -12 17 -76 l0 -75 71 0 c49 0 75 4 85 15 9 8 20 15 27
15 6 0 2 -7 -9 -15 -17 -13 32 -14 423 -15 l442 0 4 33 4 32 1 -32 2 -33 180
0 180 0 0 303 0 303 -82 2 c-46 1 -95 5 -110 8 -21 4 -31 -1 -51 -28 -14 -18
-28 -44 -32 -58 -8 -24 -8 -24 -16 -5 -7 19 -8 19 -8 -2 -1 -16 -7 -23 -20
-23 -11 0 -23 -4 -26 -10 -3 -5 -15 -10 -26 -10 -17 0 -18 -3 -9 -20 15 -27
36 -25 56 5 9 14 20 25 25 25 9 0 -21 -92 -47 -141 -20 -38 -21 -40 -23 -70
-1 -12 -5 -17 -13 -13 -6 4 -8 3 -4 -4 3 -6 1 -22 -5 -36 -15 -31 -135 -79
-191 -74 -21 1 -43 -3 -50 -10 -7 -7 -29 -12 -50 -12 -30 0 -38 4 -38 18 0 11
8 18 20 19 11 1 18 -2 15 -6 -6 -10 35 -22 47 -14 12 7 -38 33 -64 33 -19 0
-20 5 -16 60 5 65 23 95 51 84 9 -3 17 -10 17 -16 0 -5 -4 -6 -10 -3 -6 3 -7
-1 -4 -9 3 -9 9 -14 13 -12 4 3 17 -15 29 -38 20 -36 27 -42 48 -38 26 5 30
16 14 35 -6 7 -22 27 -35 46 -14 20 -25 28 -25 19 0 -8 11 -27 26 -43 29 -31
26 -47 -4 -19 -10 11 -27 40 -37 66 -17 46 -17 48 4 88 11 22 21 50 21 61 0
11 5 17 10 14 6 -3 10 -1 10 5 0 6 5 8 10 5 6 -3 10 3 10 15 0 16 5 20 23 17
12 -2 16 -2 9 0 -8 3 -11 11 -6 21 4 10 8 29 8 44 1 29 16 52 16 25 0 -10 5
-17 10 -17 6 0 10 9 10 19 0 16 5 19 27 15 24 -5 25 -3 12 13 -13 16 -13 16 9
1 13 -9 31 -14 40 -12 9 1 34 6 55 9 21 3 35 10 33 14 -3 5 -16 6 -28 4 -13
-2 -34 0 -48 6 -24 10 -24 10 8 10 37 1 44 21 7 21 -14 0 -25 5 -25 11 0 6 -7
3 -16 -5 -8 -9 -21 -16 -27 -16 -9 0 -9 2 -1 8 35 23 45 102 18 153 -18 37
-98 89 -134 89 -16 0 -35 -10 -46 -22z m456 -683 c0 -14 -4 -25 -9 -25 -4 0
-11 -18 -14 -41 -3 -22 -8 -44 -12 -47 -13 -14 -96 -7 -108 8 -7 8 -21 15 -32
15 -16 0 -20 6 -18 28 3 40 22 54 99 71 93 20 94 19 94 -9z"/>
<path d="M50 815 c0 -39 -3 -45 -25 -51 -21 -5 -25 -12 -25 -45 l0 -39 54 0
c46 0 56 3 60 20 3 11 9 29 12 40 4 14 1 20 -11 20 -12 0 -16 6 -12 18 3 9 10
32 15 50 l11 32 -40 0 -39 0 0 -45z"/>
<path d="M0 136 l0 -136 90 0 c87 0 91 1 102 25 6 14 15 25 21 25 5 0 6 -11 3
-25 -6 -23 -4 -25 29 -25 22 0 35 5 35 13 0 8 11 24 25 37 27 26 50 113 39
154 -11 44 -50 56 -204 62 l-140 5 0 -135z"/>
</g>
</svg>
