<?xml version="1.0" standalone="no"?>
<!DOCTYPE svg PUBLIC "-//W3C//DTD SVG 20010904//EN"
 "http://www.w3.org/TR/2001/REC-SVG-20010904/DTD/svg10.dtd">
<svg version="1.0" xmlns="http://www.w3.org/2000/svg"
 width="1140.000000pt" height="585.000000pt" viewBox="0 0 1140.000000 585.000000"
 preserveAspectRatio="xMidYMid meet">
<metadata>
Created by potrace 1.15, written by Peter Selinger 2001-2017
</metadata>
<g transform="translate(0.000000,585.000000) scale(0.100000,-0.100000)"
fill="#000000" stroke="none">
<path d="M223 5840 c22 -14 22 -60 0 -99 -10 -16 -15 -33 -11 -36 3 -4 41 -9
85 -12 71 -6 81 -9 111 -39 17 -17 32 -41 32 -52 0 -11 12 -29 27 -40 62 -45
-2 -52 -277 -27 -91 8 -171 15 -177 15 -10 0 -13 -74 -13 -339 l0 -338 58 -6
c33 -4 87 -2 121 4 56 9 66 8 96 -11 44 -27 54 -41 57 -78 3 -37 12 -39 53
-12 17 11 57 25 89 32 43 8 70 21 97 45 43 39 49 38 132 -25 66 -50 79 -71 75
-114 l-3 -31 -100 3 c-55 2 -132 3 -172 2 -40 -1 -75 3 -78 7 -3 5 -51 9 -107
10 -57 0 -151 3 -211 7 l-107 7 0 -201 c0 -156 3 -203 13 -209 7 -4 33 -33 56
-63 52 -66 102 -110 158 -138 52 -27 70 -21 76 26 3 20 13 62 22 92 10 30 20
71 22 91 6 44 -4 48 -117 50 -69 2 -66 3 34 9 105 6 109 7 136 37 15 17 32 37
36 45 5 8 25 26 45 41 49 37 161 48 217 22 59 -28 102 -65 123 -106 10 -21 27
-42 36 -48 14 -7 18 -26 20 -103 4 -172 15 -293 27 -300 6 -4 58 -8 116 -8 77
1 110 5 124 15 29 22 89 19 111 -5 31 -35 162 -21 149 15 -7 18 12 20 23 2 4
-7 20 -18 36 -24 62 -28 27 -33 -233 -33 -143 0 -260 -4 -260 -9 0 -5 6 -14
14 -20 34 -28 70 -173 90 -362 17 -157 23 -169 81 -169 32 0 50 -6 64 -21 12
-14 32 -21 55 -21 44 0 56 8 56 36 0 33 42 57 110 63 78 7 130 -3 130 -25 0
-10 -20 -39 -45 -65 l-44 -47 -106 0 c-99 0 -105 -1 -105 -20 0 -11 -7 -23
-15 -27 -9 -3 -91 0 -183 7 -168 13 -216 25 -264 67 -11 10 -22 12 -35 5 -32
-16 -96 -22 -111 -10 -17 15 -45 31 -92 55 -19 9 -43 24 -53 32 -9 8 -27 19
-39 25 -12 6 -27 27 -33 46 -10 30 -16 35 -48 38 -25 2 -43 11 -57 29 -21 27
-27 68 -10 78 6 4 10 -5 10 -20 0 -23 3 -25 23 -19 12 3 26 13 30 20 11 20 25
17 32 -6 8 -24 30 -26 39 -4 3 9 6 35 6 58 0 39 6 48 69 113 47 49 88 80 134
102 75 36 84 37 114 12 22 -18 93 -153 93 -176 0 -7 -14 -15 -30 -18 -39 -8
-40 -36 -1 -43 27 -6 31 -11 38 -58 5 -33 13 -52 23 -54 12 -2 16 8 18 44 1
37 8 54 38 86 19 22 33 42 30 46 -4 3 -12 0 -18 -6 -28 -28 -68 5 -68 56 0 26
-44 113 -75 150 -25 30 -27 37 -20 89 4 31 11 66 15 78 9 23 -2 97 -12 80 -3
-6 -8 -23 -12 -40 -10 -43 -46 -116 -60 -121 -13 -5 -82 21 -90 34 -7 12 22
52 39 52 7 0 17 -9 20 -20 6 -20 9 -19 41 13 51 49 32 84 -30 56 -20 -10 -30
-9 -49 4 -13 9 -53 21 -88 27 l-64 12 -32 -36 c-22 -24 -33 -46 -33 -66 0 -26
-7 -33 -58 -59 -56 -28 -127 -94 -152 -140 -11 -22 -12 -22 -32 -4 -20 18 -21
17 -15 -2 16 -55 17 -96 3 -155 -8 -36 -18 -93 -22 -126 l-6 -62 30 -7 c17 -3
40 -1 51 5 13 6 21 7 21 1 0 -5 9 -13 20 -16 53 -17 -40 -73 -132 -80 -26 -2
-74 -13 -107 -26 l-61 -22 0 -1544 0 -1544 80 7 c65 5 84 4 98 -9 9 -8 26 -17
37 -19 11 -2 21 -11 23 -20 2 -13 -18 -20 -117 -38 l-121 -23 0 -83 0 -84 330
0 330 0 -4 38 c-3 20 -8 80 -11 132 -3 52 -9 165 -15 250 -5 85 -21 371 -35
635 -14 264 -32 579 -39 700 -8 121 -17 277 -20 347 -7 138 -11 158 -33 158
-8 0 -13 6 -11 12 3 7 13 13 24 13 24 0 43 52 43 123 1 33 5 51 11 47 6 -3 10
-44 10 -90 0 -51 4 -87 11 -91 7 -4 9 -22 5 -48 -3 -22 4 -221 16 -441 16
-304 24 -403 34 -411 16 -13 19 -79 4 -69 -6 3 -10 0 -10 -7 0 -36 30 -510 35
-555 7 -59 -1 -53 155 -128 52 -25 100 -53 107 -61 16 -22 5 -44 -22 -44 -37
0 -48 -24 -42 -89 7 -77 -1 -111 -24 -111 -10 0 -21 4 -24 10 -6 10 -122 80
-132 80 -6 0 1 -170 13 -322 l7 -78 733 0 734 0 0 55 c0 30 -6 153 -14 272 -8
120 -20 301 -26 403 -6 102 -15 255 -20 340 -5 85 -12 206 -16 267 l-6 113 27
10 c15 6 29 19 32 30 3 11 9 20 14 20 12 0 17 -30 23 -145 3 -55 10 -101 16
-103 12 -4 13 -84 1 -97 -13 -16 48 -954 65 -988 17 -34 18 -77 3 -77 -11 0
-8 -84 3 -96 3 -2 309 -3 681 -2 l675 3 -166 69 c-248 102 -280 117 -286 132
-4 9 3 18 18 23 12 5 259 52 547 105 827 150 850 155 889 182 19 13 62 48 95
79 l60 56 70 -5 c39 -3 160 -8 270 -12 226 -7 174 -14 769 102 192 37 333 69
338 76 4 7 8 22 8 33 0 26 39 142 95 280 24 61 55 157 68 215 28 117 113 339
159 415 17 28 54 79 82 115 49 62 106 150 106 166 0 3 -26 4 -57 0 -32 -3
-110 -10 -173 -16 -63 -5 -209 -19 -325 -30 -115 -12 -234 -19 -264 -16 -51 5
-58 2 -108 -34 -69 -49 -105 -55 -261 -39 -70 7 -140 13 -157 12 -16 -1 -259
-25 -540 -54 -495 -50 -544 -54 -688 -46 -37 2 -70 0 -73 -5 -3 -4 -16 -8 -30
-8 -13 0 -24 -4 -24 -9 0 -5 -16 -12 -35 -15 -44 -9 -38 -20 23 -42 76 -27
136 -57 148 -72 11 -16 7 -59 -7 -67 -4 -3 -16 3 -26 14 -10 11 -29 25 -43 31
-14 5 -45 23 -70 39 -42 26 -100 47 -100 37 0 -4 41 -120 75 -211 15 -39 -12
0 -54 79 -29 53 -39 82 -32 89 24 24 -40 116 -81 117 -30 0 -20 27 17 49 28
16 46 19 86 15 57 -6 99 1 99 17 0 7 -23 8 -69 3 -64 -6 -68 -5 -74 15 -3 12
-1 19 4 15 5 -3 9 -1 9 5 0 5 -8 12 -17 14 -10 2 -6 3 8 1 20 -2 29 3 37 21 8
17 21 25 44 27 l33 3 -3 58 c-1 32 2 66 8 77 7 13 6 20 -2 22 -13 5 -1 90 28
196 14 50 14 55 -3 67 -17 13 -17 15 3 42 11 15 32 33 45 40 19 9 31 31 48 85
13 40 32 91 42 112 32 67 30 69 -63 62 -280 -19 -302 -19 -331 4 -37 29 -34
36 15 43 23 3 47 12 53 19 7 9 33 12 91 10 69 -2 87 1 118 19 45 26 46 39 4
39 -18 1 -60 7 -93 15 -81 20 -82 19 -90 -15 -8 -38 -25 -49 -25 -16 0 13 -6
31 -13 38 -7 7 -22 26 -33 43 -18 28 -18 29 0 22 13 -5 17 -3 13 7 -4 10 12
15 70 19 42 3 80 10 85 15 5 5 2 24 -7 46 -9 21 -13 45 -10 54 5 13 10 12 28
-10 12 -15 31 -28 42 -30 11 -2 21 -12 24 -23 2 -11 8 -23 14 -27 16 -10 39 3
33 18 -3 9 2 14 14 14 10 0 22 -9 25 -20 3 -11 13 -20 22 -20 20 0 133 51 133
59 0 14 -186 69 -298 88 -18 3 -37 13 -42 23 -5 10 -25 23 -44 30 -24 8 -48
29 -78 70 -42 58 -67 78 -53 43 3 -10 9 -31 12 -48 4 -16 12 -36 20 -43 7 -7
13 -34 13 -59 l0 -46 -22 20 c-45 41 -103 58 -92 28 4 -8 15 -15 25 -15 11 0
32 -18 49 -42 16 -24 34 -49 40 -55 6 -7 8 -24 4 -38 -5 -21 -12 -25 -41 -25
-19 0 -32 4 -29 9 3 5 -4 12 -17 16 -18 7 -12 9 28 15 49 7 42 9 -38 14 -60 4
-64 29 -5 41 27 6 29 9 14 17 -10 6 -32 7 -50 4 -29 -6 -34 -3 -46 21 -7 16
-12 34 -11 41 1 6 -4 12 -12 12 -27 0 -65 39 -60 60 4 15 0 20 -15 20 -14 0
-21 9 -25 30 -4 17 -12 30 -19 30 -15 0 -78 73 -78 89 0 6 -13 17 -29 26 -16
8 -32 24 -36 35 -8 24 -67 37 -101 21 -27 -12 -31 -8 -37 37 -3 22 -22 41 -40
42 -4 0 -12 -12 -17 -26 -8 -19 -16 -25 -30 -21 -13 3 -25 -2 -35 -16 -17 -24
-20 -41 -6 -33 5 3 11 0 13 -7 19 -50 -51 -39 -88 14 -43 62 -64 49 -64 -40 0
-26 -7 -63 -16 -80 -14 -29 -20 -32 -50 -29 -19 2 -35 0 -37 -6 -2 -5 -9 17
-16 50 -22 103 -19 99 -46 74 -22 -21 -25 -21 -47 -6 -25 18 -42 21 -33 6 6
-9 -17 -40 -29 -40 -3 0 -6 8 -6 19 0 10 -9 21 -19 24 -26 7 -31 0 -21 -29 10
-26 1 -37 -20 -23 -23 13 -40 11 -40 -7 0 -22 -71 -92 -77 -76 -8 21 -23 13
-23 -14 0 -14 -4 -23 -9 -20 -5 3 -11 -5 -13 -19 -3 -13 -1 -22 3 -19 5 3 9 1
9 -5 0 -6 -11 -13 -25 -17 -21 -5 -23 -9 -14 -25 7 -15 6 -20 -6 -24 -8 -3
-22 -7 -31 -10 -10 -3 -14 -11 -10 -21 3 -9 3 -27 0 -40 -5 -20 -9 -22 -20
-13 -17 14 -17 13 -5 -29 7 -24 6 -32 -3 -32 -18 0 -35 21 -29 35 3 10 -2 12
-16 8 -12 -3 -21 -9 -21 -13 0 -9 -37 -20 -44 -13 -3 3 7 18 22 33 33 33 43
48 60 80 7 14 23 45 37 70 40 74 42 72 -109 67 -131 -4 -135 -3 -160 20 -14
13 -26 28 -26 33 0 6 40 10 93 10 103 0 124 9 102 44 -18 27 -5 51 52 99 31
26 39 37 28 41 -8 3 -15 14 -15 24 0 10 -5 23 -12 30 -7 7 -8 12 -2 12 5 0 5
4 -1 8 -28 19 -95 117 -84 121 7 2 18 -5 26 -15 7 -11 22 -30 33 -44 11 -14
36 -47 57 -75 20 -27 42 -53 48 -57 6 -3 30 -34 54 -67 25 -34 46 -61 47 -61
2 0 32 16 67 35 35 19 83 37 108 40 72 9 97 15 110 31 6 8 29 14 54 14 47 0
68 17 86 69 9 26 8 35 -4 49 -8 9 -18 32 -22 50 -5 27 -3 37 15 52 20 17 20
19 3 29 -16 9 -16 10 5 11 26 0 28 -14 7 -54 -8 -15 -12 -32 -9 -37 10 -17 25
-9 36 22 12 35 25 28 30 -15 4 -37 28 -48 28 -13 0 13 13 42 29 65 17 22 36
64 43 93 11 44 18 55 41 64 27 9 32 6 87 -53 47 -49 65 -62 89 -62 16 0 33 5
36 10 3 6 13 10 21 10 15 0 19 -54 7 -99 -5 -20 -11 -22 -39 -18 -43 7 -67
-11 -62 -48 3 -27 6 -30 36 -27 26 3 32 0 32 -17 0 -11 -12 -33 -26 -50 -21
-26 -24 -34 -14 -46 7 -9 20 -13 30 -10 27 9 107 -42 157 -101 47 -54 47 -54
105 -54 32 0 58 4 58 10 0 5 16 28 36 49 26 29 53 46 100 61 36 12 74 20 85
17 11 -3 60 3 111 14 50 10 105 19 122 19 17 0 42 6 56 14 14 7 37 20 52 28
45 24 80 75 82 119 2 26 10 48 24 62 12 12 22 16 22 9 0 -6 5 -12 10 -12 6 0
10 7 10 16 0 30 18 3 25 -37 5 -29 3 -45 -7 -57 -40 -47 -28 -57 20 -17 19 16
42 25 63 25 33 0 56 11 117 57 23 18 32 20 39 10 21 -26 48 -217 31 -217 -4 0
-5 -6 -2 -13 3 -10 -4 -14 -25 -15 -21 0 -32 5 -36 18 -13 42 -46 70 -81 70
-19 0 -34 -4 -34 -10 0 -5 5 -10 11 -10 8 0 8 -5 -1 -15 -16 -19 3 -45 34 -45
11 0 29 -6 38 -14 15 -11 16 -18 6 -49 -12 -39 -33 -54 -53 -37 -10 8 -15 8
-20 -1 -8 -11 -51 -8 -90 7 -18 7 -18 6 -7 -9 16 -19 7 -57 -14 -57 -8 0 -35
19 -60 42 -44 41 -47 42 -60 23 -8 -10 -14 -24 -14 -31 0 -7 -4 -14 -9 -16 -4
-1 -12 -13 -15 -26 -6 -18 0 -29 28 -56 20 -18 36 -35 36 -39 0 -13 -30 -7
-68 12 -64 33 -111 96 -127 170 -6 29 -9 32 -17 17 -7 -13 -1 -36 27 -92 21
-41 35 -77 32 -80 -3 -3 -32 2 -64 12 -32 9 -66 18 -75 19 -10 1 -21 4 -24 8
-4 4 -15 7 -25 7 -10 0 -31 16 -46 36 -39 52 -64 76 -70 71 -2 -3 12 -26 31
-52 20 -26 39 -57 42 -71 5 -18 13 -24 32 -24 14 0 35 -9 47 -20 12 -11 57
-29 101 -41 71 -18 187 -55 238 -75 16 -6 18 -4 13 16 -7 26 7 50 28 50 8 0
19 -16 25 -35 15 -44 80 -90 143 -98 41 -6 48 -4 58 15 7 13 8 23 3 25 -6 2
-25 12 -44 22 -32 16 -36 24 -45 78 -5 33 -16 68 -24 77 -26 31 -5 25 34 -10
22 -20 57 -51 79 -70 32 -27 38 -38 33 -60 -3 -17 1 -33 9 -41 8 -8 14 -24 14
-36 0 -21 5 -22 81 -24 89 -3 103 -8 76 -28 -15 -11 -15 -13 -2 -18 9 -4 12
-13 8 -23 -4 -12 -2 -15 8 -12 15 5 15 25 3 133 -5 49 -3 63 10 74 22 18 46 7
46 -22 0 -13 7 -32 15 -43 8 -10 15 -34 15 -51 0 -41 10 -42 38 -3 28 37 40
38 78 2 16 -16 42 -37 57 -47 16 -10 26 -24 23 -31 -3 -8 4 -19 16 -25 17 -9
28 -8 55 6 18 10 36 16 39 12 3 -3 8 -24 11 -46 3 -23 10 -41 14 -41 5 0 9 4
9 9 0 6 9 9 20 8 23 -1 28 -17 5 -17 -8 0 -15 -7 -15 -16 0 -12 -4 -14 -12 -7
-14 11 -108 26 -108 17 0 -2 8 -17 17 -31 l17 -26 -52 6 c-45 5 -53 4 -63 -14
-13 -25 -5 -49 15 -49 8 0 18 -5 21 -10 4 -6 -8 -10 -28 -10 -23 0 -52 12 -87
35 -29 19 -54 35 -56 35 -8 0 10 -37 30 -59 12 -13 16 -21 9 -17 -7 3 -14 -2
-18 -14 -4 -11 -18 -28 -31 -37 -32 -21 -67 -6 -89 37 -9 18 -18 30 -20 28 -1
-1 1 -43 5 -91 8 -81 12 -92 48 -140 21 -29 44 -62 50 -74 11 -21 11 -21 -19
-13 -18 5 -41 16 -53 25 -11 8 -37 26 -56 39 -19 13 -48 38 -65 56 -16 18 -40
36 -53 41 -12 5 -41 38 -64 74 -23 36 -43 63 -45 61 -4 -4 33 -128 52 -171 7
-16 17 -42 23 -57 7 -16 22 -30 37 -34 15 -4 25 -13 25 -24 0 -26 30 -80 44
-80 15 0 40 -75 31 -90 -13 -20 -56 -9 -89 23 -37 34 -55 77 -82 197 -16 70
-48 160 -58 160 -2 0 3 -26 11 -57 18 -65 21 -210 6 -237 -9 -16 -11 -15 -26
7 -9 13 -30 61 -47 105 -17 45 -36 84 -41 87 -15 10 -10 -27 11 -83 24 -62 25
-92 5 -92 -18 0 -19 -14 -2 -40 10 -17 9 -22 -3 -31 -8 -5 -25 -8 -38 -6 -27
5 -27 7 -1 -43 18 -34 20 -46 10 -66 -6 -14 -11 -28 -11 -31 0 -5 246 5 310
12 14 2 28 4 33 4 4 1 21 15 39 31 28 27 30 33 20 56 -16 34 -15 69 2 83 17
15 33 0 103 -100 31 -45 57 -71 73 -74 38 -9 54 -20 60 -41 14 -51 22 -55 121
-61 52 -3 153 1 224 8 72 7 173 15 225 19 52 4 78 7 58 8 -21 1 -45 10 -55 21
-27 28 -62 43 -100 43 -34 0 -34 1 -32 39 5 69 -23 56 -39 -19 -9 -38 -8 -42
9 -42 10 0 33 -9 51 -20 32 -19 32 -20 8 -20 -14 0 -45 11 -70 25 -25 13 -55
29 -67 34 -29 13 -29 22 1 50 55 51 32 80 -32 41 -39 -24 -72 -26 -72 -5 0 22
79 93 118 106 17 6 32 15 32 20 0 16 -38 10 -85 -13 -50 -24 -59 -22 -50 14 4
16 22 32 52 47 37 18 43 24 33 36 -10 12 -10 15 0 15 8 0 11 3 8 6 -4 3 -16 1
-27 -5 -17 -10 -20 -9 -14 5 5 14 2 16 -13 11 -66 -20 -64 -20 -64 3 0 13 5
40 12 61 13 44 6 58 -17 39 -26 -22 -29 -2 -7 48 11 26 23 55 26 65 7 21 36
23 36 2 0 -8 8 -19 19 -24 26 -14 54 8 49 40 -2 19 -10 25 -38 29 -32 5 -35 8
-38 43 -2 23 3 48 12 62 21 32 20 45 -4 45 -11 0 -20 7 -20 15 0 22 37 55 60
55 24 0 25 -8 4 -32 -16 -16 -15 -18 2 -23 11 -4 33 -13 49 -21 19 -9 57 -14
105 -13 41 1 95 -1 120 -4 25 -3 47 -1 50 3 6 10 102 13 146 4 19 -3 34 -1 38
5 4 6 34 11 67 11 43 0 58 3 53 11 -5 9 21 10 102 5 60 -4 112 -10 117 -13 5
-3 6 -14 4 -25 -5 -17 -2 -19 16 -14 12 4 114 11 227 17 113 6 229 13 259 15
l53 6 -7 63 -6 64 36 7 c20 3 56 4 81 0 l44 -6 0 39 c0 22 -6 44 -15 51 -20
17 -19 36 4 59 18 18 18 20 3 23 -36 7 57 50 109 51 44 1 53 -3 75 -29 57 -66
70 -144 33 -194 -14 -18 -20 -38 -17 -53 4 -19 0 -27 -13 -30 -21 -6 -42 15
-34 34 3 9 -15 26 -50 46 -52 30 -55 31 -65 14 -7 -14 -5 -22 6 -32 11 -9 15
-25 12 -51 -4 -42 -8 -41 60 -22 42 12 24 -23 -30 -56 l-51 -32 -211 -9 c-116
-4 -294 -11 -396 -14 -102 -4 -243 -13 -315 -20 -71 -7 -155 -11 -185 -8 -69
7 -61 7 -207 -8 -101 -10 -123 -15 -122 -28 1 -25 152 -251 168 -251 10 0 66
-124 93 -205 25 -77 20 -146 -12 -180 -31 -33 -23 -32 60 10 82 41 118 44 157
11 l28 -24 260 24 c286 26 348 28 373 15 9 -5 44 -11 77 -15 l60 -5 -47 12
c-48 12 -67 23 -46 25 75 6 139 14 223 28 66 10 126 14 178 10 72 -6 77 -5 77
13 0 11 9 22 19 26 12 3 18 12 15 20 -5 13 28 67 80 129 23 28 27 29 88 23 34
-3 84 -9 111 -13 l47 -7 -15 43 c-8 23 -28 58 -45 76 -39 45 -45 72 -29 146 7
35 12 90 11 123 -1 42 3 64 15 77 15 17 15 19 -3 33 -10 9 -45 29 -76 45 -65
34 -80 55 -72 100 8 35 46 59 131 80 29 8 65 24 80 37 l28 23 -31 29 c-24 21
-29 32 -22 45 5 9 14 13 20 10 7 -4 8 -2 4 5 -4 6 0 14 8 17 9 3 16 13 16 21
0 8 -5 11 -11 7 -7 -4 -10 1 -7 12 2 13 12 19 31 19 23 0 33 -8 55 -49 26 -47
26 -49 8 -60 -10 -6 -30 -20 -43 -31 -23 -19 -23 -21 -7 -43 13 -19 22 -23 47
-18 53 11 71 -30 46 -103 -16 -46 -3 -50 16 -5 12 28 15 54 11 93 -5 43 -4 52
6 43 8 -6 27 -8 48 -3 30 6 34 11 31 32 -4 32 -19 59 -32 59 -23 0 -79 54 -89
85 -15 46 -45 81 -92 111 -36 23 -38 27 -33 58 5 25 3 35 -9 39 -8 3 -23 23
-32 44 l-17 38 -8 -30 c-4 -16 -11 -40 -14 -52 -6 -18 -3 -22 22 -25 22 -2 29
-9 31 -30 4 -34 -15 -36 -73 -8 -55 26 -77 25 -139 -10 -31 -18 -60 -28 -70
-24 -11 4 -16 1 -16 -12 0 -28 -15 -45 -32 -39 -22 9 -68 115 -67 155 0 19 -2
50 -6 68 -8 34 0 41 19 18 6 -8 20 -17 32 -20 17 -5 24 2 44 43 15 33 20 58
16 75 -13 53 85 83 156 46 27 -14 52 -20 69 -16 36 7 53 -14 44 -54 -4 -19
-13 -30 -24 -30 -28 0 -58 -27 -45 -40 8 -8 16 -7 29 6 12 13 19 14 24 5 4 -7
12 -11 17 -10 21 5 42 -13 38 -34 -4 -21 -4 -21 6 1 7 18 15 22 31 17 19 -6
20 -4 18 50 -3 52 0 60 25 81 34 30 25 49 -18 39 -75 -17 -91 -14 -108 16 -10
16 -13 29 -8 29 5 0 22 11 38 25 34 28 129 56 202 58 46 2 51 5 69 37 10 19
27 37 37 39 10 2 25 12 32 22 7 11 20 19 28 19 8 0 23 5 33 12 26 16 54 -6 45
-34 -4 -14 0 -21 15 -25 22 -6 29 -37 11 -48 -5 -3 -10 -15 -10 -26 0 -11 4
-17 10 -14 11 7 23 -33 18 -61 -3 -19 21 -22 310 -33 17 0 32 -5 32 -11 0 -6
-68 -10 -183 -10 -174 0 -185 -1 -203 -21 -15 -17 -28 -20 -66 -17 -40 2 -47
0 -41 -12 4 -8 6 -27 6 -42 0 -17 5 -28 13 -28 15 0 19 -26 5 -34 -5 -3 -12
-25 -15 -48 -4 -24 -17 -63 -29 -88 l-22 -45 -60 1 c-33 0 -76 4 -95 9 l-35 8
29 -31 c36 -39 72 -49 97 -26 18 16 19 15 29 -11 9 -24 14 -26 40 -21 17 3 44
9 60 12 25 5 30 11 30 35 l0 29 78 -6 c128 -8 182 -15 182 -22 0 -4 -11 -24
-25 -45 -24 -35 -29 -37 -77 -37 l-51 0 21 -23 c26 -27 27 -40 8 -56 -18 -15
-63 4 -72 31 -8 25 -55 48 -100 48 -29 0 -35 -3 -30 -16 4 -9 0 -22 -7 -28 -9
-7 -11 -23 -6 -51 l6 -40 2 36 c0 19 7 44 15 55 14 18 15 18 44 -10 17 -15 35
-26 40 -23 5 4 19 -1 32 -10 22 -16 22 -17 4 -30 -18 -13 -18 -15 -1 -27 18
-14 23 -36 7 -36 -5 0 -12 -17 -15 -37 -3 -21 -10 -46 -16 -55 -5 -10 -9 -23
-9 -30 0 -7 -11 -35 -25 -63 -13 -27 -25 -57 -25 -65 0 -9 -7 -26 -16 -38 -12
-18 -25 -22 -70 -22 -30 0 -53 -4 -50 -9 3 -5 13 -43 21 -85 13 -72 13 -78 -5
-109 -21 -37 -77 -229 -86 -299 -4 -26 -2 -60 4 -78 11 -29 10 -32 -20 -48
-17 -9 -54 -36 -82 -60 -38 -32 -51 -50 -53 -71 0 -16 -6 -38 -12 -49 -16 -30
-14 -166 3 -207 8 -19 29 -55 46 -80 18 -26 29 -53 26 -61 -7 -19 -45 -18 -52
1 -4 8 -12 15 -19 15 -7 0 -18 6 -25 14 -6 8 -18 12 -27 9 -8 -3 -19 0 -23 7
-6 10 -12 11 -22 3 -34 -27 -65 -24 -101 11 -20 19 -33 36 -30 40 4 3 -1 6
-10 6 -20 0 -20 -2 -6 -55 14 -55 29 -84 63 -125 25 -29 27 -35 13 -38 -24 -5
-21 -17 9 -39 22 -17 25 -24 19 -51 -3 -18 -10 -32 -15 -32 -11 0 -50 50 -50
64 0 7 -13 52 -29 101 -28 85 -51 120 -51 76 0 -12 -4 -21 -8 -21 -4 0 -7 -35
-5 -77 2 -76 1 -77 -13 -45 -9 20 -21 32 -33 32 -12 0 -23 11 -30 30 -15 46
-26 36 -23 -20 3 -35 0 -50 -8 -50 -10 0 -10 -3 0 -15 8 -9 12 -60 13 -148 l2
-134 25 -1 c14 0 50 0 80 0 145 0 270 -1 320 -3 139 -7 276 30 223 59 -13 8 0
12 52 17 49 6 83 16 116 36 25 16 61 32 78 35 l32 7 -6 -59 c-3 -33 -7 -97
-10 -144 -7 -145 -17 -160 -104 -160 -86 0 -102 7 -90 37 16 44 11 63 -16 63
-14 0 -25 -4 -25 -9 0 -6 -12 -16 -27 -23 -16 -7 -28 -19 -28 -26 0 -23 -37
-42 -80 -42 -23 0 -46 -5 -52 -11 -9 -9 -15 -3 -26 23 -17 41 -40 60 -37 32 6
-51 -2 -85 -26 -113 -29 -34 -46 -40 -38 -14 5 16 4 16 -8 2 -7 -9 -26 -19
-43 -24 -28 -8 -28 -9 -7 -13 13 -2 69 6 125 18 94 20 278 39 390 40 41 0 47
-3 47 -21 0 -38 -43 -174 -61 -193 -20 -21 -213 -65 -290 -66 -54 0 -184 24
-251 47 -39 14 -51 14 -77 3 -18 -7 -30 -15 -27 -17 2 -2 62 -18 132 -34 131
-30 161 -43 128 -53 -42 -12 -857 -189 -1229 -267 -104 -22 -230 -48 -280 -58
-130 -28 -413 -86 -535 -111 -313 -64 -1040 -214 -1135 -234 l-110 -24 3578
-1 3577 -1 0 710 c0 391 -2 710 -4 710 -2 0 -64 -9 -137 -20 -74 -12 -179 -28
-234 -36 -55 -8 -167 -26 -250 -41 -369 -63 -420 -70 -429 -62 -17 16 11 59
38 59 14 0 28 5 31 10 4 6 -8 10 -30 10 -34 0 -36 2 -33 27 3 31 -6 29 124 18
63 -5 78 -3 130 21 32 15 74 40 92 55 18 16 40 29 50 29 27 0 131 -26 217 -55
67 -22 91 -25 145 -20 99 9 117 14 127 38 8 18 23 24 84 32 64 9 74 13 77 31
2 16 -3 23 -21 26 -17 3 -24 0 -23 -11 0 -8 -7 -17 -16 -19 -25 -5 -51 24 -43
48 5 15 2 20 -12 20 -57 -1 -79 -24 -47 -51 13 -11 12 -14 -13 -24 -39 -16
-63 -8 -63 21 0 17 6 24 19 24 18 0 38 17 30 24 -2 2 -21 6 -41 9 -29 4 -36 3
-31 -8 3 -9 -5 -17 -24 -21 -34 -8 -43 -20 -43 -56 0 -17 -7 -29 -19 -33 -23
-7 -231 44 -231 56 0 11 16 11 110 -1 49 -7 77 -7 84 0 19 19 -11 32 -78 33
-72 2 -80 9 -66 57 6 21 5 40 -2 56 -9 20 -8 28 3 40 17 16 49 9 49 -10 0 -7
-5 -17 -12 -24 -21 -21 -2 -23 25 -2 14 11 31 20 39 20 7 0 22 7 32 15 11 8
37 15 57 15 21 0 41 5 44 10 4 6 21 17 38 25 18 8 44 24 58 36 l26 21 63 -39
c66 -40 85 -63 53 -63 -17 -1 -17 -1 1 -15 11 -8 28 -15 38 -15 17 0 18 21 18
399 0 345 -2 400 -15 405 -19 7 -19 30 0 46 10 8 15 31 15 65 0 48 -2 53 -20
48 -35 -9 -44 -30 -33 -77 17 -77 -9 -103 -71 -71 -28 15 -46 13 -46 -6 0 -5
9 -9 19 -9 11 0 23 -5 26 -11 5 -7 -9 -9 -41 -7 -39 2 -49 0 -52 -15 -3 -12 3
-17 22 -17 18 0 29 -9 40 -32 9 -17 16 -35 16 -41 0 -16 -77 -1 -108 21 -15
12 -41 24 -56 28 -35 9 -57 43 -61 96 -2 24 -4 46 -4 51 -1 4 -8 7 -16 7 -8 0
-19 9 -25 19 -13 25 -13 64 0 56 31 -19 57 -14 79 15 12 17 29 30 37 30 9 0
46 9 82 19 37 11 100 24 140 31 l72 12 0 158 0 158 -47 10 c-26 6 -50 9 -52 7
-2 -3 8 -20 23 -40 23 -30 25 -36 11 -41 -10 -4 -30 5 -53 24 l-37 30 1 101
c1 76 5 106 17 119 12 14 13 28 5 79 -12 81 5 124 61 152 22 12 47 21 56 21
13 0 15 21 15 145 0 138 -1 145 -20 145 -15 0 -20 7 -20 25 0 18 5 25 20 25
19 0 20 7 20 180 l0 180 -102 -2 c-57 -1 -131 -1 -166 1 -57 4 -64 6 -77 32
-21 40 -32 43 -47 12 -11 -22 -20 -27 -42 -25 -15 2 -34 -2 -41 -8 -9 -8 -17
-4 -29 15 -20 30 -35 31 -69 5 -21 -17 -40 -20 -109 -19 -45 0 -118 4 -160 7
-59 6 -78 4 -78 -5 0 -20 -21 -26 -37 -10 -20 20 -9 50 15 43 13 -4 23 3 36
29 23 42 54 54 129 47 48 -4 56 -2 52 10 -5 13 2 14 52 6 31 -5 71 -18 89 -28
31 -20 31 -20 54 0 29 25 76 26 116 1 22 -13 35 -16 48 -9 11 6 21 6 29 0 19
-16 94 -25 205 -25 82 0 106 3 119 16 15 15 15 18 -8 36 -13 11 -47 33 -74 50
-41 25 -57 29 -87 25 -21 -4 -37 -9 -36 -13 0 -3 0 -21 -1 -39 -1 -47 -19 -37
-54 31 -25 47 -35 57 -56 58 -14 0 -80 4 -146 8 -138 10 -165 3 -165 -41 0
-44 -39 -37 -100 17 -31 27 -60 45 -75 45 -41 0 -59 39 -51 110 l7 60 -45 0
c-48 0 -59 -10 -76 -71 -8 -25 -6 -29 12 -29 25 0 78 -37 78 -55 0 -9 -16 -13
-52 -13 -42 0 -56 4 -70 21 -12 16 -19 18 -30 10 -18 -14 -102 -10 -122 6 -9
8 -16 19 -16 27 0 20 -20 27 -43 16 -12 -6 -30 -13 -40 -16 -9 -3 -22 -17 -27
-31 -5 -14 -14 -25 -20 -25 -5 0 -10 -7 -10 -15 0 -8 5 -15 11 -15 6 0 8 -8 4
-19 -8 -28 11 -35 54 -21 32 10 43 10 69 -4 26 -14 35 -14 52 -4 18 11 23 10
39 -11 11 -14 31 -25 51 -27 48 -6 61 -21 58 -68 -2 -31 -8 -42 -23 -45 -11
-2 -26 -12 -33 -22 -9 -12 -25 -19 -48 -19 -19 0 -43 -6 -55 -12 -17 -11 -22
-10 -39 12 -15 19 -22 22 -31 13 -17 -17 -5 -39 40 -67 23 -15 41 -35 43 -48
4 -32 68 -47 103 -24 13 9 31 16 40 16 9 0 29 7 45 15 16 8 31 11 34 6 3 -4
16 -6 30 -4 18 4 22 10 18 25 -10 38 22 14 46 -35 l23 -47 27 25 c17 16 39 25
59 25 21 0 37 7 47 21 8 12 19 18 24 15 17 -10 1 -45 -22 -48 -11 -2 -25 -13
-31 -26 -5 -12 -14 -22 -20 -22 -10 0 -35 -67 -35 -93 0 -25 -25 -66 -47 -76
-26 -12 -30 -29 -9 -37 8 -3 47 0 87 6 41 6 97 13 124 15 84 7 115 15 126 33
16 26 91 17 120 -14 30 -32 77 -30 155 8 25 12 48 2 80 -34 16 -17 20 -32 17
-59 l-5 -37 -153 -7 -153 -7 -5 -40 c-7 -51 3 -115 14 -96 5 7 9 30 9 51 0 37
17 67 39 67 13 0 18 -58 32 -325 6 -121 15 -224 21 -230 6 -6 20 -4 40 8 19
11 35 14 40 9 16 -16 22 -90 8 -106 -12 -16 -157 -52 -167 -43 -3 3 4 18 16
33 24 31 28 79 7 87 -18 7 -24 49 -35 255 -5 90 -11 166 -14 168 -3 3 -15 -1
-27 -8 -18 -11 -23 -11 -35 6 -18 24 -68 15 -63 -12 2 -9 10 -16 16 -15 7 2
18 4 25 5 7 2 13 -11 15 -34 3 -34 1 -37 -30 -46 -18 -5 -50 -7 -72 -4 -35 4
-38 3 -31 -17 8 -25 -12 -29 -22 -5 -11 29 -33 -14 -33 -63 0 -24 -4 -43 -10
-43 -5 0 -22 24 -37 53 -21 40 -28 47 -31 32 -6 -27 -22 -46 -34 -39 -6 4 -7
28 -3 59 4 39 3 55 -9 64 -8 7 -17 8 -20 3 -3 -5 -17 -8 -31 -6 -16 1 -28 -3
-32 -12 -3 -9 -17 -15 -32 -14 -56 4 -62 1 -55 -25 5 -20 1 -26 -19 -34 -14
-5 -28 -15 -32 -21 -9 -14 -25 -3 -19 14 8 21 -17 31 -31 13 -16 -22 -40 -16
-138 34 -95 48 -109 58 -101 71 3 5 -1 24 -10 43 -30 62 9 119 40 58 l11 -23
21 30 c12 16 22 33 22 38 0 5 11 19 24 31 48 45 188 33 216 -20 17 -32 7 -43
-48 -54 -47 -9 -50 -11 -37 -28 7 -11 32 -23 55 -28 37 -8 45 -6 85 21 24 16
51 30 59 30 22 0 86 59 86 80 0 9 -5 31 -11 49 -8 24 -17 32 -33 30 -11 0 -26
-1 -33 0 -17 2 -30 53 -22 86 5 17 14 51 20 77 7 27 9 51 5 55 -7 8 -290 13
-311 6 -6 -2 -9 -39 -7 -92 3 -83 2 -90 -17 -96 -12 -3 -25 -3 -31 0 -16 10
-12 137 5 159 8 10 12 23 9 27 -3 5 -61 9 -128 9 -98 0 -126 -3 -136 -15 -17
-21 -25 -19 -39 11 -9 21 -9 30 2 43 8 9 17 24 20 34 4 9 15 20 24 23 60 19
65 23 48 41 -11 11 -14 23 -9 37 12 35 7 95 -12 134 -9 20 -16 53 -16 74 3 67
-46 218 -79 245 -14 11 -109 63 -115 63 -2 0 -4 -9 -4 -21 0 -13 -4 -18 -12
-13 -10 6 -10 4 0 -8 12 -15 7 -48 -7 -48 -15 1 -41 29 -41 44 0 9 -8 16 -19
16 -24 0 -36 16 -19 24 7 2 2 4 -12 3 -21 -2 -25 2 -23 21 2 13 -1 21 -7 17
-6 -3 -10 -12 -10 -20 0 -14 -21 -25 -51 -25 -11 0 -19 7 -19 16 0 29 -79 7
-124 -34 l-38 -37 16 33 c9 17 21 32 26 32 6 0 10 5 10 11 0 7 -11 9 -30 6
-27 -6 -44 7 -20 15 5 2 11 17 13 34 4 29 2 31 -29 30 -31 -2 -88 -41 -80 -55
3 -3 -2 -15 -10 -25 -13 -18 -14 -17 -11 15 3 47 -12 51 -34 9 -13 -23 -19
-55 -19 -97 0 -77 15 -113 47 -113 14 0 23 -6 23 -16 0 -24 24 -11 30 17 3 13
12 24 20 24 11 0 15 -13 16 -50 2 -64 -5 -95 -20 -95 -7 0 -22 -9 -34 -20 -12
-11 -30 -20 -41 -20 -12 0 -26 -11 -35 -27 -8 -16 -25 -37 -38 -49 -19 -17
-29 -20 -55 -12 -18 5 -33 14 -33 21 0 18 63 82 68 69 7 -21 28 -13 51 18 22
31 22 31 5 83 -19 54 -21 60 -23 77 0 6 -8 10 -17 10 -12 0 -14 -3 -6 -13 8
-9 6 -16 -8 -25 -16 -10 -22 -8 -39 15 -17 21 -23 23 -36 13 -13 -11 -13 -15
5 -30 25 -22 25 -30 0 -30 -11 0 -20 -7 -20 -15 0 -8 -4 -15 -9 -15 -5 0 -23
-11 -39 -25 -26 -22 -29 -29 -25 -68 4 -29 0 -54 -11 -75 -9 -17 -16 -54 -16
-82 0 -28 -5 -60 -11 -71 -23 -44 25 -84 74 -62 24 11 67 -2 67 -20 0 -5 13
-7 30 -3 17 3 30 1 30 -4 0 -6 -11 -10 -25 -10 -14 0 -25 -4 -25 -9 0 -8 -93
-51 -111 -51 -5 0 -6 7 -2 16 4 11 2 15 -7 12 -12 -4 -57 -116 -66 -168 -13
-68 -14 -68 -34 -63 -16 4 -19 2 -14 -11 3 -9 12 -16 20 -16 22 0 16 -28 -8
-41 -18 -10 -24 -8 -35 7 -7 10 -13 23 -13 28 0 6 -5 4 -10 -4 -5 -8 -7 -22
-5 -31 6 -17 -16 -29 -90 -48 -55 -15 -58 -14 -52 11 5 16 -7 35 -48 80 -64
69 -81 120 -46 144 28 20 27 38 -4 58 -17 11 -25 26 -25 45 0 39 11 46 31 19
l18 -23 19 45 c18 42 62 89 107 115 19 12 19 12 -30 53 -25 22 -12 37 35 40
48 4 76 -13 48 -29 -23 -13 -23 -32 0 -52 33 -30 45 -21 40 28 -3 25 -2 48 3
51 21 12 8 42 -22 53 -30 10 -31 13 -25 53 3 24 6 51 7 60 0 11 11 21 26 24
23 6 24 9 18 51 -5 35 -3 49 11 64 16 18 27 88 18 120 -3 10 -20 19 -44 23
-21 3 -43 13 -48 22 -8 15 -10 15 -15 0 -7 -18 -81 -23 -92 -6 -9 15 36 70 57
70 12 0 16 4 12 12 -5 8 0 9 16 5 16 -4 28 0 36 11 12 16 14 15 34 -6 11 -12
19 -26 16 -31 -3 -5 3 -11 14 -14 19 -5 50 20 50 40 0 5 9 18 20 28 11 10 20
27 20 37 0 11 9 22 20 25 11 3 20 13 21 22 0 17 82 84 127 104 15 6 29 14 32
18 3 3 23 9 44 12 22 3 43 10 48 15 12 12 -1 42 -18 42 -19 0 -104 -42 -104
-52 0 -4 -7 -8 -15 -8 -11 0 -15 11 -15 40 0 37 3 40 45 59 25 11 45 25 45 30
0 6 -17 19 -39 30 -21 11 -41 27 -45 36 -5 13 -23 15 -138 9 -73 -3 -135 -8
-137 -10 -14 -13 -12 -108 3 -144 9 -23 18 -72 20 -109 1 -37 6 -74 11 -81 5
-8 3 -11 -6 -8 -9 3 -16 26 -19 63 -3 34 -10 60 -17 63 -8 2 -13 -5 -13 -17 0
-36 -32 -43 -167 -37 -69 3 -129 8 -133 11 -15 9 -38 -6 -44 -31 -6 -22 -10
-23 -50 -18 -39 6 -44 4 -49 -17 -4 -13 -7 -34 -7 -47 0 -57 -62 -28 -82 40
-6 21 -12 38 -14 38 -2 0 -27 -6 -56 -14 -41 -10 -87 -11 -203 -5 -82 5 -180
6 -217 2 -63 -5 -68 -7 -68 -29 0 -12 -5 -26 -11 -30 -8 -5 -10 2 -7 21 3 16
2 40 -4 56 -11 31 14 130 37 149 22 18 18 28 -12 32 -26 3 -34 15 -48 74 -3
11 -477 40 -494 29 -7 -4 -9 -62 -5 -173 5 -135 9 -169 22 -179 9 -7 17 -23
19 -35 5 -33 8 -33 55 1 25 18 62 34 84 38 56 8 66 19 59 64 -6 32 -3 43 19
65 21 23 33 28 85 29 45 1 64 -2 75 -14 22 -26 25 -60 10 -96 -20 -49 -18 -55
19 -55 42 -1 81 -34 106 -90 31 -70 42 -82 39 -40 -3 31 0 35 26 40 37 6 43
24 14 37 -23 10 -23 10 9 26 18 10 39 17 47 17 23 0 30 -20 10 -34 -22 -17
-11 -36 17 -29 27 7 58 -30 59 -69 0 -25 3 -27 37 -25 31 2 39 -2 50 -24 7
-15 16 -40 19 -57 5 -26 3 -30 -21 -34 -16 -3 -34 1 -47 12 -12 9 -31 15 -43
12 -19 -3 -23 -14 -34 -100 -21 -154 -20 -176 7 -180 12 -2 22 -7 22 -12 0
-15 -60 -22 -126 -15 l-63 7 6 78 c4 56 2 84 -6 94 -8 10 -9 21 -3 31 8 15 -2
123 -13 134 -3 2 -12 -2 -21 -10 -16 -13 -117 -49 -140 -49 -6 0 -16 12 -23
27 l-13 27 -16 -27 c-14 -23 -22 -27 -47 -23 -16 3 -76 8 -131 12 l-101 7 -7
85 c-7 91 -15 105 -56 97 -37 -8 -80 50 -89 121 -4 30 -12 59 -17 64 -5 5 -60
12 -121 16 l-113 7 0 -26 c0 -20 14 -37 59 -72 54 -41 81 -78 68 -91 -6 -6
-315 11 -832 45 -82 5 -204 13 -269 16 l-119 6 15 -23 c8 -13 25 -27 37 -33
11 -5 23 -17 26 -26 3 -9 21 -30 40 -48 19 -17 35 -38 35 -45 0 -21 24 -26
130 -26 90 0 101 2 127 24 56 47 109 46 166 -3 32 -28 38 -30 164 -37 129 -7
130 -7 169 20 56 38 141 32 189 -14 19 -18 26 -19 48 -9 16 7 28 23 32 40 9
42 31 56 54 35 12 -11 20 -13 23 -6 2 6 23 12 48 13 39 2 46 -1 58 -25 7 -16
22 -33 33 -38 30 -16 23 -51 -19 -90 -89 -84 -90 -84 -118 -72 -20 10 -28 9
-40 -3 -21 -20 -45 -6 -86 50 -18 24 -45 49 -60 56 -15 6 -33 18 -40 26 -27
33 -59 35 -97 8 -37 -25 -37 -25 -165 -15 -71 5 -132 7 -137 4 -21 -12 -9 -54
20 -68 31 -17 79 -72 105 -123 17 -34 36 -44 36 -20 0 8 9 22 21 33 20 18 21
18 35 -1 13 -17 14 -14 8 27 -7 47 7 71 28 50 12 -12 48 15 48 36 0 7 12 25
26 39 l26 26 12 -24 c6 -13 26 -28 46 -34 58 -17 61 -21 53 -82 l-6 -56 71 5
c40 3 77 10 84 16 8 6 30 7 53 3 30 -5 43 -13 52 -32 18 -37 56 -28 91 22 15
21 33 41 40 44 32 12 152 -85 152 -123 0 -33 34 -44 185 -58 l140 -13 -179 5
c-98 3 -189 9 -201 14 -13 5 -119 10 -237 11 -251 2 -281 3 -298 14 -8 5 -25
9 -39 11 -14 1 -42 5 -61 10 l-35 7 16 -24 c9 -13 26 -28 37 -34 22 -10 30
-39 13 -49 -5 -4 -33 13 -61 36 -29 24 -66 51 -83 61 -28 17 -29 17 -22 0 4
-10 13 -39 21 -65 12 -38 24 -54 62 -79 26 -18 58 -43 70 -56 25 -25 59 -27
54 -3 -2 7 0 20 3 28 7 19 36 -4 33 -27 -2 -10 4 -16 17 -16 16 0 19 6 17 28
-4 30 9 35 28 12 14 -17 70 -20 70 -4 0 6 -8 13 -18 16 -10 2 -24 19 -31 36
-10 24 -15 28 -18 15 -6 -24 -20 -23 -34 4 -10 19 -12 19 -21 5 -9 -17 -38
-24 -38 -9 1 4 11 19 23 34 l23 28 39 -21 c53 -28 77 -52 89 -91 13 -40 33
-45 82 -22 36 17 39 17 105 -5 47 -17 77 -21 101 -16 95 20 131 16 193 -17 53
-29 60 -37 66 -70 3 -21 4 -40 2 -42 -7 -6 -63 25 -63 35 0 17 -17 9 -30 -16
-11 -20 -10 -28 4 -50 9 -14 23 -25 31 -25 9 0 15 -9 15 -22 0 -17 -3 -19 -9
-9 -10 16 -31 6 -31 -15 0 -8 9 -14 20 -14 16 0 20 -7 20 -30 0 -16 -4 -30 -8
-30 -5 0 -34 14 -65 31 -35 19 -78 33 -113 36 -51 5 -55 8 -49 27 4 12 8 37 9
57 1 20 8 44 15 53 18 21 8 30 -23 22 -26 -6 -81 -59 -103 -99 -11 -21 -12
-20 -13 13 0 19 4 51 10 69 5 19 8 36 7 37 -2 2 -115 6 -252 10 -138 3 -253 9
-257 13 -3 3 -15 22 -25 41 -11 19 -37 45 -58 57 -61 34 -165 42 -165 12 0 -6
9 -7 20 -4 22 7 30 -20 8 -28 -18 -6 37 -27 72 -27 19 0 35 -9 48 -25 11 -14
29 -25 40 -25 31 0 45 -25 38 -65 -7 -34 -8 -35 -42 -29 -27 5 -34 3 -34 -10
0 -11 9 -16 31 -16 31 0 32 -1 26 -41 -7 -49 9 -89 35 -89 10 0 32 -10 48 -22
26 -19 44 -22 147 -24 157 -2 150 -1 135 -16 -9 -9 -42 -12 -112 -9 -110 3
-119 -2 -80 -52 11 -14 20 -30 20 -36 0 -21 -18 -11 -44 24 -15 19 -32 32 -39
30 -6 -3 -31 13 -55 35 -24 22 -47 40 -52 40 -4 0 -11 -19 -15 -41 -6 -37 -4
-44 19 -63 23 -18 26 -26 20 -55 -4 -21 -17 -39 -35 -50 -16 -10 -38 -29 -49
-44 -36 -45 -50 -35 -50 34 0 34 5 79 12 100 15 51 0 85 -39 91 -15 3 -35 7
-43 9 -11 3 -14 -3 -12 -19 6 -41 -54 -83 -73 -52 -17 27 -21 1 -17 -97 l4
-108 -33 -20 c-77 -47 -80 -48 -104 -35 -17 9 -27 9 -42 -1 -17 -10 -24 -9
-46 7 -26 19 -53 77 -48 102 1 8 -6 23 -16 34 -17 19 -17 19 17 17 19 -1 53
-1 75 0 l40 3 -30 13 c-16 8 -44 14 -62 15 -25 0 -35 7 -52 36 -16 26 -20 45
-16 65 4 18 2 29 -4 29 -6 0 -11 5 -11 10 0 6 5 10 12 10 7 0 24 12 39 26 23
22 26 30 16 45 -9 15 -7 23 13 44 19 20 33 25 75 25 67 0 116 31 126 78 4 18
15 40 25 48 19 14 18 14 0 29 -15 11 -49 15 -142 15 -98 0 -125 3 -131 15 -9
16 -91 24 -111 11 -7 -4 -12 -2 -12 3 0 6 4 11 10 11 5 0 7 27 5 62 -2 39 1
74 10 95 11 26 12 35 2 38 -21 7 -458 28 -463 22 -10 -9 37 -104 62 -126 13
-11 24 -25 24 -31 0 -11 -53 -40 -74 -40 -16 0 -44 48 -56 95 -4 19 -12 29
-21 26 -8 -2 -47 -4 -86 -4 -40 0 -73 -4 -73 -8 0 -4 20 -15 45 -25 48 -18 55
-36 35 -88 -13 -35 1 -33 43 4 19 16 37 27 41 23 22 -22 -19 -85 -75 -114
l-40 -20 -47 52 c-90 98 -115 166 -72 189 29 16 25 27 -14 34 -44 8 -63 30
-45 52 11 14 14 13 29 -7 12 -16 19 -18 25 -9 4 6 3 16 -3 22 -6 6 -8 17 -5
24 3 8 2 25 -1 39 -8 31 -28 24 -51 -18 l-17 -32 -154 0 c-85 0 -154 -2 -154
-5 0 -3 19 -28 43 -57 23 -28 72 -112 109 -185 53 -105 70 -149 79 -210 12
-71 11 -79 -6 -98 -22 -24 -13 -37 30 -43 17 -2 -36 -5 -117 -6 -135 -1 -168
-7 -138 -26 23 -14 7 -24 -31 -19 -26 3 -48 13 -59 26 -16 20 -73 31 -155 29
-119 -3 -1012 2 -1018 6 -27 17 27 23 198 23 107 0 196 3 198 8 3 4 7 30 8 57
l4 50 -210 70 -210 70 -3 56 c-4 79 8 89 109 89 62 0 79 3 79 14 0 21 -11 26
-80 31 -35 3 -69 10 -77 17 -9 7 -60 13 -131 15 -64 2 -225 8 -357 12 -132 5
-254 7 -272 4 -31 -5 -32 -7 -38 -69 -5 -43 -12 -64 -21 -64 -7 0 -16 5 -19
10 -9 15 -35 12 -35 -3 0 -7 15 -20 33 -28 22 -10 31 -20 30 -34 -8 -74 -35
-231 -41 -237 -9 -9 -151 -30 -161 -24 -4 3 -13 1 -21 -4 -27 -16 6 -33 87
-46 l78 -12 -85 -1 c-244 -6 -668 -3 -688 3 -35 11 -36 2 -8 -43 31 -49 61
-53 96 -16 26 28 50 33 50 11 0 -12 7 -13 32 -5 49 14 55 11 31 -13 -12 -12
-31 -22 -42 -23 -21 -1 -54 -41 -91 -107 -20 -37 -22 -38 -76 -38 -83 0 -111
21 -166 124 -34 63 -34 69 -3 110 35 46 33 86 -5 108 -26 15 -30 23 -30 59 l0
42 40 -7 c37 -6 40 -4 41 16 1 13 1 29 0 36 -1 7 6 27 15 45 9 17 20 39 24 47
6 12 23 14 79 11 l72 -3 11 30 c7 17 21 33 32 36 28 7 86 -49 86 -83 0 -15 7
-44 15 -66 20 -55 19 -168 -1 -211 -9 -19 -14 -37 -11 -41 9 -9 71 6 93 21 19
14 19 15 -2 35 -13 12 -24 39 -29 68 -4 26 -13 63 -21 82 -25 59 -19 95 21
125 19 15 54 30 77 35 70 14 94 27 117 66 26 45 27 89 1 122 -24 31 -28 72 -5
53 8 -6 19 -9 25 -5 22 13 8 35 -29 46 -33 10 -40 17 -45 44 -4 20 0 54 11 86
16 47 24 57 63 77 32 16 62 22 110 22 61 0 84 -7 137 -40 18 -12 29 -12 54 -3
27 10 30 10 25 -4 -14 -36 51 -37 109 -1 17 10 39 18 49 18 11 0 27 7 37 16
11 10 25 13 38 9 17 -5 21 -14 19 -44 -1 -43 7 -61 28 -61 9 0 14 -6 11 -12
-2 -7 -16 -13 -32 -13 -19 0 -30 -7 -36 -20 -12 -31 -11 -35 16 -35 13 0 40
-8 59 -17 31 -16 35 -24 42 -73 4 -30 8 -57 8 -60 5 -26 24 -30 131 -30 l113
0 24 37 c13 21 28 46 33 57 6 11 25 24 44 29 24 6 31 11 22 17 -11 6 -9 10 7
19 44 24 94 -1 63 -32 -6 -6 -11 -22 -11 -37 0 -34 -9 -45 -50 -56 -34 -10
-34 -11 -13 -22 11 -6 60 -15 107 -18 75 -6 86 -5 86 9 0 24 -39 119 -57 139
-14 15 -13 17 13 13 16 -2 34 -4 40 -4 7 -1 14 -11 17 -23 l6 -22 29 27 c32
31 49 33 80 11 29 -20 28 -34 -3 -34 -30 0 -34 -25 -5 -33 14 -4 25 1 33 14
14 23 47 25 47 3 0 -24 24 -11 30 16 8 33 26 36 34 6 7 -29 114 -96 199 -125
102 -35 156 -69 175 -109 15 -32 22 -37 52 -38 19 0 42 -4 51 -8 25 -11 31 8
14 40 -30 59 -9 90 39 58 l27 -17 15 40 c11 28 28 47 55 62 41 23 59 21 59 -7
0 -27 65 -74 94 -66 19 5 24 13 29 51 6 60 -9 98 -50 117 -43 20 -107 31 -130
21 -10 -5 -26 -7 -36 -6 -10 1 -33 -9 -52 -23 -23 -18 -46 -26 -72 -26 -51 0
-62 9 -61 48 l1 32 82 0 c78 0 83 1 89 23 3 13 17 40 30 60 14 20 21 39 16 42
-5 3 -14 23 -20 44 -9 33 -13 38 -33 34 -17 -3 -24 0 -24 11 0 12 11 16 47 16
58 0 70 12 70 70 0 25 7 55 15 66 8 10 15 26 15 35 0 9 11 22 25 29 14 7 25
17 25 20 0 10 46 27 92 35 21 3 44 15 51 26 12 17 16 18 27 4 17 -20 44 -5 60
35 15 36 15 36 68 10 48 -24 77 -16 79 22 6 71 -117 128 -167 78 -24 -24 -45
-26 -36 -4 3 9 6 19 6 23 0 4 16 15 35 24 44 21 77 15 127 -24 38 -30 74 -35
143 -20 26 5 30 10 27 37 -2 23 2 33 15 37 10 4 26 12 35 19 13 10 22 9 41 -1
21 -11 30 -11 58 3 36 18 89 21 89 5 0 -6 11 -25 25 -43 14 -18 25 -37 25 -42
0 -6 -21 -20 -47 -33 -43 -21 -45 -24 -28 -34 11 -6 25 -17 30 -24 9 -12 16
-10 39 8 23 18 32 20 47 11 24 -16 29 -15 29 3 0 30 57 47 139 41 96 -8 119 4
96 51 l-15 31 -123 7 c-67 4 -140 11 -162 15 -74 14 100 11 220 -5 108 -14
110 -14 128 7 9 11 17 26 17 33 0 7 7 16 16 19 19 7 91 -10 99 -25 8 -12 35 7
35 25 0 18 -40 52 -75 63 -44 14 -88 -2 -120 -43 -26 -34 -30 -36 -74 -30 -25
3 -109 10 -186 16 -95 8 -145 16 -156 26 -19 17 -58 19 -117 6 -65 -14 -321 9
-333 31 -30 52 -63 78 -130 98 -39 12 -80 18 -94 15 -14 -4 -33 -1 -43 5 -25
16 -98 -22 -120 -61 -9 -17 -21 -31 -27 -33 -5 -2 -48 0 -95 5 -47 4 -117 11
-157 14 l-71 6 -4 -28 c-3 -27 -7 -29 -50 -32 -56 -4 -92 12 -83 36 8 23 -52
137 -79 150 -12 5 -43 8 -67 5 -47 -5 -60 3 -84 50 -5 12 -21 24 -35 27 -23 5
-25 11 -28 68 l-3 62 -54 0 -55 0 -2 -47 c0 -27 -2 -70 -2 -98 -2 -80 -28
-138 -50 -111 -13 16 -69 36 -103 36 -32 0 -73 -46 -73 -81 0 -25 -4 -28 -46
-35 -25 -3 -71 -2 -102 4 -31 6 -74 14 -95 17 -47 8 -77 36 -77 74 0 43 26 65
64 55 17 -4 49 -8 71 -8 l39 -1 1 65 c0 36 6 75 13 88 15 27 8 42 -19 42 -24
0 -42 -42 -37 -89 4 -31 1 -35 -40 -52 -24 -11 -55 -19 -68 -19 -21 0 -24 5
-24 35 0 19 -4 35 -10 35 -5 0 -9 -26 -8 -59 1 -50 -3 -66 -26 -99 -26 -39
-28 -39 -105 -46 -101 -8 -251 3 -251 19 0 18 66 85 84 85 26 0 18 18 -16 36
-18 10 -50 31 -71 48 -43 35 -70 29 -75 -18 -3 -20 -9 -26 -27 -26 -28 0 -42
-17 -27 -32 6 -6 32 -14 58 -19 56 -11 61 -14 45 -32 -7 -10 -25 -13 -54 -10
-23 3 -70 4 -104 3 -51 -1 -62 1 -57 13 8 21 -8 28 -74 32 -31 1 -74 6 -94 10
-33 6 -38 5 -38 -11 -1 -44 -4 -44 -231 -34 -118 6 -219 13 -226 15 -9 3 -9
11 0 34 6 17 9 32 6 35 -2 3 -46 10 -97 17 -106 13 -119 8 -101 -37 6 -16 11
-48 10 -70 -2 -24 3 -45 10 -49 6 -4 57 -10 113 -14 l101 -6 3 -32 3 -33 59 0
c67 0 90 -7 90 -26 0 -17 -46 -29 -63 -16 -6 6 -64 13 -127 17 -63 4 -120 12
-127 17 -8 6 -24 6 -45 0 -18 -6 -61 -12 -96 -15 -61 -5 -64 -4 -73 21 -9 25
-8 48 7 86 5 13 -1 16 -25 16 -21 0 -34 6 -38 18 -4 9 -12 22 -18 27 -63 58
-62 57 -142 61 -43 3 -84 7 -92 9 -13 5 -13 -28 0 -75 5 -17 -52 -20 -152 -8
l-55 6 -13 -88 c-11 -77 -18 -98 -59 -162 -25 -40 -51 -76 -57 -80 -10 -8
-136 -2 -166 7 -9 3 -21 23 -28 45 -15 52 1 91 44 103 52 15 110 46 150 81
l38 33 -6 61 c-7 68 -2 92 19 92 15 0 34 39 34 70 0 14 -8 18 -37 18 -38 -1
-215 15 -368 33 -185 21 -181 20 -162 9z m3612 -270 c60 0 76 -37 36 -84 -15
-17 -27 -18 -161 -12 -80 4 -154 8 -164 9 -17 2 -22 -9 -34 -81 -8 -45 -13
-85 -10 -88 3 -3 25 -6 49 -8 59 -3 104 -29 135 -76 22 -34 32 -39 67 -42 40
-3 43 -6 69 -58 17 -33 24 -58 18 -65 -6 -7 -49 -7 -147 2 -76 7 -230 18 -343
25 l-205 13 0 52 c0 102 25 144 97 163 81 22 106 58 77 111 -8 15 -5 31 15 73
l26 54 82 -3 c46 -2 112 -8 147 -14 84 -13 159 -4 172 21 6 12 17 17 26 14 8
-3 30 -6 48 -6z m-1601 -100 c15 -5 28 -20 32 -35 3 -14 15 -32 26 -39 11 -8
17 -19 14 -24 -3 -5 -10 -41 -16 -79 -5 -39 -12 -77 -15 -85 -3 -8 3 -25 15
-38 11 -13 20 -27 20 -31 0 -5 26 -16 58 -25 72 -20 117 -54 133 -99 10 -27
19 -35 43 -37 26 -2 31 -7 31 -28 l0 -25 -100 0 c-94 0 -202 5 -458 21 -59 4
-110 11 -113 15 -9 16 23 75 58 104 19 17 55 42 81 57 45 26 45 27 40 70 -3
24 -12 52 -19 63 -20 28 -17 56 7 62 12 4 22 17 26 35 8 39 47 68 89 66 19 -1
37 1 40 4 11 12 -54 35 -85 30 -24 -3 -31 -1 -31 12 0 13 11 16 49 16 27 0 61
-4 75 -10z m-2068 -255 c7 -41 28 -46 67 -15 14 11 35 21 48 22 25 3 36 -23
46 -109 4 -34 2 -43 -10 -43 -9 0 -19 5 -22 10 -3 6 -20 17 -37 26 -29 15 -32
15 -45 -2 -8 -11 -11 -31 -7 -55 6 -34 4 -38 -17 -41 -16 -2 -24 -9 -23 -21 1
-9 -4 -17 -12 -17 -8 0 -14 4 -14 9 0 4 -18 29 -40 54 -46 52 -49 70 -17 129
54 100 72 112 83 53z m1551 -201 c43 -47 56 -84 28 -84 -20 0 -19 -9 5 -28 20
-16 20 -19 5 -62 -28 -78 -55 -110 -95 -110 -52 0 -106 51 -114 110 -14 94 -8
113 63 193 35 38 58 34 108 -19z m-149 -321 c13 -18 22 -39 19 -47 -3 -8 0
-19 6 -24 9 -7 24 6 52 44 22 29 44 54 48 54 15 0 24 -44 16 -74 -5 -17 -14
-57 -20 -89 -6 -33 -19 -67 -30 -78 -10 -10 -20 -32 -21 -49 -3 -34 -18 -42
-18 -9 0 11 -9 32 -20 46 -11 14 -20 38 -20 54 0 32 -15 47 -24 23 -3 -9 -6
-35 -6 -58 0 -24 -7 -65 -15 -91 -10 -35 -11 -53 -3 -62 14 -18 3 -55 -22 -71
-20 -12 -20 -11 -11 7 22 40 14 47 -51 49 -34 2 -69 8 -78 15 -8 7 -27 18 -42
25 -25 10 -28 9 -28 -6 0 -10 14 -37 31 -60 37 -50 23 -54 -32 -10 -35 28 -43
31 -68 21 -28 -10 -28 -10 -16 14 7 14 22 31 34 39 29 20 27 52 -3 64 -30 11
-46 39 -46 79 0 34 14 39 41 15 24 -22 40 -9 38 29 -1 18 3 45 10 60 16 41 14
52 -6 28 -16 -20 -20 -20 -38 -7 -20 14 -19 15 6 38 14 14 28 31 31 39 4 12
10 11 41 -3 38 -18 47 -33 25 -41 -7 -2 5 -4 27 -4 22 1 67 -1 99 -3 62 -4 88
12 44 26 -13 4 -28 14 -34 22 -8 12 -15 12 -33 3 -19 -10 -26 -8 -52 13 -17
14 -40 26 -51 26 -11 0 -18 5 -16 13 6 15 110 22 137 8 14 -8 22 -7 32 5 11
14 14 12 27 -13 8 -15 26 -43 40 -60z m6812 0 c16 -51 7 -93 -20 -93 -11 0
-20 -5 -20 -11 0 -6 9 -8 20 -4 24 8 24 9 28 -142 2 -61 3 -63 43 -90 48 -31
68 -67 76 -132 4 -39 10 -50 35 -64 19 -11 28 -23 26 -34 -4 -20 2 -20 -351
-11 -115 3 -212 9 -218 15 -12 12 8 157 26 193 7 14 46 48 87 75 66 46 73 54
76 87 2 26 -3 46 -18 66 -24 32 -18 62 11 62 20 0 27 34 9 45 -5 3 -10 1 -10
-4 0 -14 -37 -14 -45 -1 -11 18 15 52 37 47 11 -3 31 -2 44 3 17 7 36 4 70
-10 61 -27 67 -26 59 10 -7 31 2 58 14 43 4 -4 13 -27 21 -50z m-2796 -673
c55 -12 63 -29 41 -82 -7 -17 2 -18 100 -18 92 0 113 -3 146 -22 38 -21 39
-22 18 -33 -13 -8 -37 -9 -67 -4 -26 4 -116 8 -199 8 l-153 1 0 66 c0 91 20
106 114 84z m-410 -119 c8 -13 125 -22 146 -11 26 14 79 -19 97 -61 18 -43 16
-58 -5 -32 -9 12 -24 22 -32 23 -59 8 -94 -14 -85 -52 8 -32 32 -39 74 -22 45
19 75 3 68 -34 -16 -79 -30 -122 -44 -134 -13 -10 -18 -8 -35 12 -15 19 -31
25 -77 28 -50 4 -61 1 -79 -18 l-21 -23 -46 27 c-34 20 -47 35 -52 57 -4 20
-10 28 -19 25 -8 -3 -14 1 -14 9 0 8 4 15 10 15 5 0 14 19 20 43 10 42 26 93
41 135 8 22 42 31 53 13z m-3141 -283 c3 -10 9 -10 23 -2 15 9 25 8 47 -2 29
-15 34 -28 16 -40 -6 -3 -8 -16 -5 -29 7 -26 -7 -40 -47 -50 -15 -4 -27 -11
-27 -17 0 -5 8 -7 18 -4 9 3 29 8 45 12 15 3 27 10 27 15 0 5 5 9 10 9 6 0 10
-9 10 -20 0 -11 -5 -20 -11 -20 -6 0 -23 -9 -39 -20 -23 -17 -33 -18 -59 -9
-18 6 -45 9 -61 5 -26 -5 -30 -2 -30 16 0 12 11 36 25 54 14 18 25 40 25 48 0
9 5 16 10 16 6 0 10 7 10 16 0 11 -6 14 -22 8 -20 -6 -21 -5 -9 10 16 19 38
21 44 4z m4537 -59 c0 -12 -8 -23 -20 -26 -11 -3 -20 -12 -20 -20 0 -10 5 -11
18 -4 22 12 42 -3 42 -30 0 -24 27 -32 33 -9 2 9 21 23 41 30 34 11 39 10 87
-25 28 -20 61 -40 75 -45 43 -17 28 -66 -21 -72 -26 -3 -30 -8 -37 -47 -9 -56
-18 -64 -51 -52 -19 8 -27 7 -27 -1 0 -7 -13 -9 -36 -5 -28 5 -35 3 -31 -8 4
-8 -4 -16 -19 -19 -20 -5 -36 2 -76 34 -36 29 -56 38 -73 34 -19 -5 -24 1 -39
41 -28 71 -32 123 -12 131 10 4 22 2 29 -5 13 -13 37 -15 37 -2 0 5 12 34 26
65 21 46 30 56 50 56 18 0 24 -5 24 -21z m4414 -156 c6 -27 3 -36 -18 -54 -28
-25 -34 -62 -15 -103 7 -14 9 -32 5 -42 -6 -16 -8 -16 -25 0 -12 11 -27 14
-47 10 -35 -7 -48 6 -57 53 -9 44 1 65 24 58 13 -4 19 -1 19 9 0 8 15 34 34
58 18 25 37 62 41 84 l8 39 12 -40 c7 -22 16 -55 19 -72z m-5510 17 c25 -30
33 -58 38 -130 l3 -35 48 3 c27 2 54 -1 62 -8 10 -9 19 -9 35 0 30 16 37 5 14
-21 -17 -20 -26 -21 -98 -15 -43 3 -85 11 -92 17 -9 7 -14 33 -14 73 0 49 -5
69 -25 98 -29 43 -30 48 -11 48 8 0 26 -14 40 -30z m-5039 -67 c22 -15 46 -33
53 -40 7 -7 22 -13 32 -13 10 0 23 -12 29 -29 17 -40 51 -57 82 -40 13 7 27
12 32 11 4 -1 8 4 8 11 2 14 15 -55 25 -128 4 -27 15 -61 24 -75 10 -14 20
-46 24 -71 4 -26 13 -55 20 -65 14 -18 16 -18 75 11 55 26 65 28 94 17 19 -7
41 -12 50 -12 11 0 17 -8 17 -25 0 -16 6 -25 15 -25 8 0 32 -9 52 -20 21 -11
43 -20 50 -20 6 0 13 -7 15 -15 2 -12 11 -10 42 11 36 25 42 26 70 15 39 -17
93 -14 120 4 11 8 40 15 63 15 55 0 72 -19 99 -113 14 -46 26 -71 35 -69 7 2
22 1 34 -2 20 -5 21 -9 14 -56 -4 -27 -11 -55 -14 -61 -10 -15 -14 -62 -7 -74
3 -5 7 -19 8 -32 4 -34 -20 -28 -50 11 -29 38 -34 76 -11 76 8 0 15 7 15 15 0
21 -8 19 -46 -10 -18 -14 -38 -25 -44 -25 -18 0 -90 -40 -90 -49 0 -5 6 -12
13 -14 21 -9 -10 -24 -64 -31 -26 -4 -51 -11 -54 -16 -3 -5 14 -20 39 -32 26
-12 46 -26 46 -30 0 -18 -36 -21 -78 -6 -26 10 -53 13 -65 9 -18 -7 -18 -8 -4
-14 31 -12 18 -22 -28 -22 -55 -1 -80 -20 -44 -34 l24 -10 -22 -7 c-13 -3 -23
-10 -23 -14 0 -5 -8 -11 -18 -14 -10 -4 -29 -16 -42 -28 l-23 -22 6 35 c11 57
128 161 282 248 204 117 192 109 169 116 -10 4 -29 12 -42 18 -29 14 -109 -5
-171 -40 -57 -33 -124 -38 -321 -25 -117 8 -220 8 -422 -3 -221 -11 -278 -11
-335 0 -37 7 -76 16 -86 20 -24 10 -22 24 3 18 15 -4 20 0 20 16 0 11 -4 21
-10 21 -5 0 -10 -4 -10 -10 0 -5 -5 -10 -10 -10 -12 0 -2 210 10 224 5 4 14 4
22 0 7 -5 37 -14 66 -20 44 -9 56 -8 68 4 9 9 24 12 39 8 78 -19 78 -19 73 -5
-2 8 -22 20 -44 27 -48 16 -58 26 -51 47 6 14 9 14 38 -1 43 -22 60 -4 23 25
-19 15 -28 32 -30 59 -5 44 24 243 37 257 5 5 9 39 9 75 0 91 9 98 75 53z
m10253 -97 c69 -35 132 -85 132 -105 0 -14 -27 -14 -35 -1 -3 6 -15 10 -26 10
-15 0 -20 -6 -17 -22 3 -21 11 -24 102 -35 55 -7 104 -17 110 -23 5 -5 18 -10
28 -10 28 0 21 -23 -13 -42 -25 -15 -55 -18 -164 -18 -73 0 -141 3 -150 6 -8
4 -22 19 -30 35 -13 25 -13 29 2 44 10 11 26 15 43 12 14 -3 31 -2 38 2 22 13
-19 39 -68 43 -44 3 -45 4 -52 43 -9 51 -1 95 18 95 8 0 45 -15 82 -34z
m-7713 -6 c29 -27 66 -29 112 -5 15 8 30 12 35 9 15 -9 2 -86 -16 -96 -9 -5
-16 -16 -16 -23 0 -8 -4 -15 -10 -15 -5 0 -7 7 -4 15 7 17 -4 19 -26 5 -12 -8
-12 -10 -1 -10 8 0 11 -3 7 -7 -8 -8 -13 -9 -42 -12 -10 -1 -14 -7 -10 -16 3
-9 0 -15 -8 -15 -8 0 -16 6 -19 13 -3 9 -7 9 -17 0 -16 -15 -6 -29 26 -37 30
-8 83 -43 102 -68 15 -20 72 -38 124 -38 20 0 40 -5 44 -11 12 -19 158 -3 284
31 63 17 127 34 142 37 39 7 76 -4 82 -25 4 -10 14 -27 24 -38 13 -14 17 -30
14 -58 -4 -33 -9 -40 -46 -55 -22 -10 -61 -21 -86 -24 -67 -10 -82 -13 -124
-31 -21 -9 -60 -16 -87 -16 -37 0 -68 -9 -127 -39 l-77 -40 -230 -10 c-126 -6
-351 -18 -500 -26 -148 -8 -287 -15 -308 -15 -58 0 -44 -27 28 -56 109 -45
144 -65 172 -99 31 -37 83 -174 103 -270 7 -33 17 -73 22 -88 12 -30 6 -42
-15 -34 -15 6 -31 75 -28 116 2 14 -1 21 -8 17 -6 -4 -13 5 -17 20 -4 15 -13
39 -20 53 -8 14 -14 41 -14 60 0 21 -9 44 -25 63 -14 16 -25 26 -25 22 0 -4
-12 5 -26 20 -26 26 -36 30 -62 27 -8 -1 -24 5 -38 14 -15 9 -24 11 -24 4 0
-6 -6 -9 -12 -6 -7 2 -13 10 -13 18 0 8 -9 16 -20 19 -12 4 -22 17 -25 34 -4
24 -11 29 -37 32 -32 4 -33 3 -33 -35 0 -29 5 -41 18 -45 15 -5 52 -54 52 -69
0 -3 -20 15 -44 41 -34 35 -48 44 -56 36 -9 -9 -3 -24 25 -59 19 -26 33 -50
29 -54 -4 -3 -9 0 -11 7 -6 16 -33 16 -33 0 0 -7 -7 -3 -15 9 -8 12 -25 23
-38 25 -27 4 -31 33 -9 78 17 34 10 49 -13 30 -27 -22 -48 -80 -49 -133 -2
-73 -15 -92 -63 -92 -36 1 -38 2 -35 30 2 16 8 35 14 42 5 7 7 17 3 22 -3 6
-1 21 6 33 9 16 9 23 0 26 -6 2 -11 8 -11 13 0 6 4 8 9 5 5 -4 8 13 6 36 -4
62 -4 62 -19 49 -10 -9 -15 -8 -20 4 -4 10 1 15 14 15 17 0 20 7 20 39 0 36 4
43 62 86 64 48 79 51 146 30 18 -6 22 -4 22 13 0 12 -9 26 -20 32 -11 6 -20
17 -20 25 0 11 -12 15 -46 15 -40 0 -45 2 -39 19 7 22 -24 38 -37 19 -26 -39
-28 -46 -11 -53 32 -12 -6 -22 -41 -11 -44 13 -62 41 -42 61 8 8 21 15 28 15
23 0 91 41 117 71 14 16 29 29 33 29 4 0 17 -18 28 -41 18 -35 23 -39 37 -28
13 12 15 7 12 -36 -3 -41 -1 -50 14 -53 12 -2 17 3 17 17 0 11 5 23 10 26 6 4
8 10 6 14 -6 8 53 6 61 -3 4 -3 -12 -22 -35 -42 -34 -28 -42 -42 -42 -69 0
-18 7 -38 15 -45 19 -16 596 -26 635 -12 23 9 21 10 -22 17 -26 4 -51 4 -57 0
-6 -3 -66 -1 -133 5 -185 16 -182 15 -195 53 -7 17 -9 44 -6 58 5 29 -9 45
-29 32 -7 -4 -16 -8 -20 -9 -5 -1 -9 -3 -10 -4 -2 -1 -20 -4 -40 -5 -44 -4
-49 9 -19 46 18 22 25 24 112 22 64 -1 103 -7 128 -20 28 -13 73 -18 211 -23
l175 -6 57 28 c31 15 59 32 63 38 3 5 15 10 26 10 10 0 19 4 19 8 0 12 -47 32
-75 32 -33 0 -37 11 -41 99 -1 42 -7 92 -13 111 -6 19 -11 40 -11 47 0 20 37
10 65 -17z m2679 -129 c48 -5 71 -12 78 -24 11 -21 28 -22 28 -2 0 17 11 18
99 9 56 -6 62 -9 59 -28 -3 -19 -9 -21 -83 -20 -44 0 -129 4 -190 9 -91 7
-114 12 -132 29 -13 12 -23 24 -23 29 0 9 74 8 164 -2z m-1762 -612 c37 -10
79 -61 60 -73 -8 -5 -128 -28 -147 -28 -5 0 -43 3 -84 7 -61 5 -80 3 -108 -12
-31 -17 -45 -43 -22 -43 19 0 -2 -20 -34 -34 -18 -7 -56 -16 -85 -20 -67 -9
-80 11 -36 54 16 16 45 51 64 78 35 51 84 78 111 62 16 -11 124 -4 147 9 22
13 87 14 134 0z m7204 -216 c9 -9 25 -18 36 -18 11 -1 23 -6 26 -12 11 -16 48
-33 72 -33 19 0 21 -4 16 -26 -11 -40 -38 -72 -71 -83 -38 -12 -93 -9 -122 7
-12 7 -29 9 -37 6 -10 -4 -16 -1 -16 7 0 8 -14 23 -30 34 -36 24 -57 53 -62
86 -3 24 -2 24 71 24 51 0 76 4 78 13 6 17 18 15 39 -5z m-7487 -49 c16 -37
14 -62 -9 -74 -11 -6 -18 -16 -14 -21 4 -6 12 -3 20 9 9 14 21 18 39 14 l26
-4 -33 -24 c-40 -30 -112 -33 -141 -6 -10 9 -33 17 -51 17 -30 0 -31 1 -34 49
-2 29 1 52 8 56 6 4 48 7 94 8 80 1 84 0 95 -24z m-247 -65 c15 -36 25 -46 33
-39 13 11 40 -11 29 -23 -3 -3 3 -10 14 -16 11 -6 23 -24 27 -41 4 -16 11 -30
16 -30 20 0 7 -16 -22 -27 -39 -15 -66 -3 -80 34 -9 24 -10 25 -29 8 -20 -19
-50 -14 -71 11 -13 16 -23 52 -12 40 4 -3 12 -1 19 5 9 7 19 7 33 0 27 -15 31
-14 31 9 0 11 -5 20 -11 20 -7 0 -10 14 -7 36 4 30 1 37 -19 45 -13 5 -23 15
-23 24 0 31 49 -7 72 -56z m-1162 -7 c0 -9 -7 -13 -20 -9 -18 4 -19 1 -13 -38
6 -46 -14 -76 -24 -36 -6 25 -20 27 -44 5 -10 -9 -29 -17 -43 -18 -19 -1 -26
-7 -26 -22 0 -31 9 -35 31 -13 10 10 33 19 49 19 27 0 30 -3 30 -29 0 -35 -19
-51 -32 -27 -10 18 -53 22 -63 6 -10 -16 -28 -12 -22 5 4 8 2 17 -2 20 -5 2
-11 14 -14 25 -4 15 3 25 24 37 36 21 37 33 4 33 -14 0 -25 6 -25 13 0 20 22
37 47 37 13 0 37 7 54 15 16 9 34 13 39 10 5 -3 12 0 16 6 8 14 34 -16 34 -39z
m368 -193 l17 -54 115 5 c212 8 204 9 210 -25 6 -30 6 -30 70 -28 135 5 163
12 185 46 24 37 72 64 87 49 7 -7 -7 -27 -41 -60 -28 -28 -51 -56 -51 -64 0
-8 -14 -30 -30 -48 -21 -23 -26 -36 -18 -41 6 -4 -15 -10 -48 -14 -96 -10
-103 -13 -118 -50 -14 -32 -18 -35 -58 -35 -24 0 -176 -14 -338 -30 -162 -17
-328 -33 -367 -37 -57 -5 -73 -9 -74 -22 -1 -13 -2 -13 -6 2 -3 10 -14 17 -29
17 -14 0 -145 29 -292 65 -199 49 -268 62 -273 53 -4 -7 -5 -16 -3 -20 3 -4 0
-8 -5 -8 -6 0 -11 7 -11 15 0 12 -32 37 -50 40 -31 4 -112 81 -116 110 -3 19
46 47 129 74 l67 23 29 -22 c34 -23 71 -71 71 -91 0 -7 -10 -23 -22 -36 -12
-13 -19 -25 -16 -28 6 -6 273 10 361 22 27 3 55 12 63 21 13 13 16 12 27 -3
10 -13 21 -15 50 -10 36 7 37 8 32 44 -3 20 -2 41 2 47 5 6 54 14 113 18 196
11 250 22 234 48 -4 6 0 14 7 19 11 7 10 9 -5 9 -20 0 -20 0 0 18 36 33 68 52
76 44 5 -5 16 -33 26 -63z m1170 -507 c-23 -46 -59 -75 -108 -86 -21 -5 -27
-1 -41 29 -9 19 -13 38 -8 41 5 3 9 0 9 -7 0 -10 3 -10 12 -1 7 7 21 12 31 12
10 0 21 9 24 19 3 11 26 36 52 56 l46 37 3 -27 c2 -14 -7 -47 -20 -73z m-268
-497 c0 -21 -6 -37 -16 -43 -15 -8 -15 -19 4 -128 12 -65 24 -140 27 -166 4
-27 9 -48 12 -48 3 0 21 9 39 21 38 23 39 30 19 114 -8 33 -15 63 -15 67 0 12
71 51 79 42 11 -12 31 -118 31 -159 0 -18 -6 -48 -14 -67 -13 -29 -25 -38 -83
-61 -81 -32 -94 -33 -122 -9 -19 15 -23 37 -37 200 -18 202 -14 230 35 257 38
20 41 19 41 -20z m615 -141 c-9 -49 -21 -102 -26 -119 -6 -16 -13 -43 -15 -60
-6 -41 -16 -48 -63 -40 -52 9 -61 23 -30 49 14 12 34 41 44 66 11 25 32 66 47
91 15 25 28 49 28 52 0 3 5 18 10 33 19 49 21 18 5 -72z"/>
<path d="M940 2826 c0 -3 14 -18 30 -34 32 -32 40 -72 15 -72 -8 0 -15 4 -15
10 0 5 -8 14 -18 19 -17 9 -19 6 -18 -34 l1 -45 61 0 61 0 5 43 c8 67 -1 104
-26 111 -24 7 -96 8 -96 2z"/>
<path d="M8203 5365 c-26 -22 -43 -114 -27 -137 5 -7 9 -24 9 -38 0 -20 -5
-25 -29 -27 -16 -1 -34 -7 -40 -13 -5 -5 -34 -10 -62 -10 -29 0 -55 -4 -58 -9
-3 -5 10 -21 30 -36 19 -15 39 -38 44 -51 13 -33 33 -30 47 6 15 40 50 40 92
-1 18 -17 35 -29 37 -26 3 3 -4 33 -16 67 -19 56 -20 69 -10 143 7 45 17 85
23 89 6 3 27 9 46 13 36 7 37 6 68 -42 11 -16 12 -15 12 10 1 45 -51 88 -102
85 -24 -1 -50 -11 -64 -23z"/>
<path d="M6187 5346 c-12 -13 -30 -36 -40 -50 -12 -17 -25 -25 -35 -22 -9 2
-67 8 -128 11 l-111 7 -19 -48 c-10 -27 -20 -52 -22 -56 -2 -5 7 -8 21 -8 13
0 36 -9 50 -20 29 -23 47 -26 47 -6 0 31 39 61 101 77 35 9 71 19 79 23 11 4
22 -7 39 -39 23 -44 24 -46 5 -59 -34 -25 -6 -29 46 -8 43 18 52 19 57 7 3 -9
0 -22 -7 -30 -24 -29 -80 -38 -192 -31 -59 4 -108 4 -108 1 0 -16 50 -71 93
-102 27 -20 52 -46 57 -58 7 -19 18 -23 82 -28 80 -6 98 3 98 52 0 13 8 48 17
77 16 47 21 53 53 58 19 3 51 21 71 39 32 29 35 34 24 55 -10 19 -14 20 -18 8
-4 -9 -13 -13 -22 -10 -8 3 -15 1 -15 -5 0 -6 -6 -8 -14 -5 -8 3 -17 1 -21 -5
-3 -6 0 -11 7 -12 7 -1 2 -4 -12 -8 -14 -4 -37 -5 -52 -3 -22 3 -29 11 -34 39
-4 19 -4 59 -1 88 6 60 -4 79 -46 89 -21 5 -32 1 -50 -18z"/>
<path d="M6547 5329 c-10 -6 -48 -12 -83 -12 -38 -1 -63 -6 -60 -12 2 -6 -17
-10 -45 -10 -39 0 -46 -2 -34 -11 20 -15 19 -21 -3 -27 -11 -2 -21 -13 -24
-24 -4 -16 0 -20 23 -21 22 0 29 4 29 18 0 18 42 36 60 25 5 -3 11 -1 14 3 8
13 53 3 67 -14 15 -19 35 -18 43 2 5 13 16 15 69 9 34 -4 65 -10 70 -14 4 -4
0 -27 -8 -51 -18 -52 -13 -73 17 -68 35 5 36 63 3 131 -14 30 -31 60 -38 65
-19 16 -80 23 -100 11z"/>
<path d="M8300 5194 c0 -12 6 -15 25 -10 14 4 37 0 53 -7 15 -7 35 -12 44 -10
10 3 22 -6 31 -23 9 -18 40 -39 93 -64 76 -37 79 -38 93 -19 7 10 19 19 25 19
6 0 12 17 12 39 1 34 -2 40 -33 55 -18 9 -56 16 -83 16 -28 0 -50 4 -50 8 0 4
-47 9 -105 10 -90 1 -105 0 -105 -14z"/>
<path d="M5122 5038 c-7 -7 -12 -17 -12 -22 -1 -20 -49 -47 -82 -46 -18 0 -42
0 -53 0 -11 0 -33 1 -50 2 -28 3 -30 1 -30 -32 0 -29 -4 -36 -22 -38 -13 -2
-23 1 -23 7 0 6 -10 15 -22 22 -17 9 -20 9 -15 -3 6 -17 -12 -49 -19 -33 -2 6
-13 24 -24 42 l-19 32 -112 0 -111 -1 7 -26 c9 -37 10 -37 51 -13 26 16 40 19
47 12 17 -17 57 -14 51 4 -4 10 0 15 11 15 12 0 15 -5 11 -16 -11 -28 4 -62
30 -68 16 -4 24 -13 22 -23 -4 -21 67 -36 111 -23 41 11 146 -10 146 -30 0
-13 -23 -15 -146 -15 l-145 0 -56 -42 c-63 -48 -66 -62 -17 -109 16 -15 29
-38 29 -50 0 -37 55 -45 150 -19 30 8 70 15 88 15 36 0 41 22 6 28 -37 7 -35
20 9 40 25 12 54 34 64 49 26 36 45 115 33 127 -28 28 -2 84 33 70 7 -2 28 11
47 31 19 19 44 35 56 35 12 0 44 -16 70 -36 l47 -36 -8 39 c-4 21 -8 38 -8 38
-14 0 -101 55 -108 68 -11 20 -21 21 -37 5z"/>
<path d="M5395 4763 c-27 -7 -67 -12 -87 -10 -43 3 -46 -2 -17 -29 16 -15 24
-16 39 -6 11 6 25 9 32 7 15 -6 44 -92 34 -102 -3 -4 0 -16 7 -27 8 -12 14
-36 15 -53 0 -18 3 -37 6 -42 4 -5 40 -9 81 -9 57 0 82 -5 107 -20 28 -17 52
-20 162 -22 l128 -1 36 41 c33 39 38 41 76 36 23 -3 46 -3 52 2 13 9 28 168
16 176 -5 3 -55 6 -113 7 -58 1 -123 8 -147 16 -30 10 -52 12 -70 5 -15 -5
-76 -7 -135 -4 -86 4 -110 8 -120 22 -18 25 -46 28 -102 13z"/>
<path d="M2628 4575 c-13 -26 -15 -41 -8 -60 7 -18 6 -25 -2 -25 -6 0 -9 -2
-7 -4 2 -2 31 0 64 5 46 6 65 5 82 -6 37 -24 71 3 42 32 -9 9 -8 18 5 38 14
22 15 26 2 31 -19 7 -37 -4 -34 -19 7 -30 -37 -22 -72 13 -39 38 -51 37 -72
-5z"/>
<path d="M6335 4545 c-99 -74 -160 -159 -139 -193 6 -9 21 -19 34 -20 31 -5
110 27 110 44 0 19 7 18 37 -6 19 -15 30 -17 44 -9 23 12 24 21 4 60 -9 16
-13 33 -11 38 3 5 -1 14 -9 21 -12 10 -17 7 -26 -16 -7 -21 -7 -34 0 -46 9
-15 8 -18 -9 -18 -18 0 -20 6 -19 64 1 45 5 66 15 70 17 7 18 26 2 26 -7 0
-22 -7 -33 -15z"/>
<path d="M4608 4340 c-9 -17 -24 -30 -33 -30 -8 0 -15 -4 -15 -10 0 -5 9 -10
21 -10 18 0 20 -4 13 -27 -4 -16 -7 -43 -7 -60 1 -25 -3 -33 -16 -33 -24 0
-61 -41 -61 -67 0 -16 10 -25 38 -33 58 -19 72 -37 70 -84 -3 -38 -1 -41 26
-44 16 -2 33 1 39 7 8 8 8 11 -1 11 -16 0 -15 39 3 70 23 40 18 57 -16 64 -25
5 -29 9 -24 26 5 15 0 26 -17 40 -17 14 -20 21 -12 30 18 18 49 8 52 -17 2
-15 14 -26 37 -33 19 -6 44 -23 55 -37 30 -39 36 -20 17 55 -30 114 -60 168
-106 191 -22 12 -42 21 -43 21 -2 0 -11 -14 -20 -30z"/>
<path d="M4231 4217 c-12 -12 -4 -36 21 -60 14 -14 17 -26 12 -59 l-7 -41 23
16 c26 18 60 7 60 -20 0 -13 9 -15 62 -9 34 4 71 12 81 18 18 9 18 10 -2 32
-13 14 -18 29 -14 44 4 18 1 22 -18 22 -13 0 -36 12 -51 27 -28 27 -28 27 -28
4 0 -13 14 -36 30 -51 17 -15 30 -33 30 -39 0 -17 -34 -30 -52 -20 -27 15 -61
70 -68 108 -5 32 -9 36 -37 37 -18 1 -36 -3 -42 -9z"/>
<path d="M6080 3875 c0 -8 8 -15 18 -15 13 0 14 -2 3 -9 -10 -6 -11 -13 -2
-29 6 -11 11 -23 11 -26 0 -10 -39 -6 -45 4 -3 6 -11 10 -17 10 -6 0 -1 -11
11 -24 14 -15 18 -25 11 -28 -7 -2 1 -10 17 -17 15 -7 35 -17 43 -21 8 -4 21
-20 30 -35 28 -51 40 -43 40 30 0 82 -25 135 -74 159 -42 20 -46 20 -46 1z"/>
<path d="M7580 2925 c-7 -8 -25 -15 -40 -15 l-28 0 24 -57 c31 -79 68 -146 81
-150 22 -8 26 89 8 202 -2 11 -4 23 -4 28 -2 13 -28 8 -41 -8z"/>
<path d="M7478 2331 c-21 -27 -38 -53 -38 -59 0 -5 -11 -18 -25 -28 -14 -10
-25 -25 -25 -33 0 -10 -8 -12 -32 -7 -76 16 -131 19 -124 8 4 -7 27 -12 51
-12 24 0 55 -4 70 -10 25 -9 25 -11 11 -44 l-15 -35 52 28 c38 20 57 38 72 68
11 22 26 47 33 56 15 18 29 117 16 117 -5 -1 -26 -23 -46 -49z"/>
<path d="M5710 2063 c-55 -20 -75 -78 -42 -120 16 -20 22 -22 75 -14 65 9 74
15 77 51 4 44 1 50 -24 50 -15 0 -26 7 -29 20 -5 20 -26 24 -57 13z"/>
<path d="M10658 1400 c-16 -12 -28 -29 -28 -37 0 -14 14 -15 113 -9 163 10
221 16 230 25 11 11 -84 29 -193 37 -88 6 -97 5 -122 -16z"/>
</g>
</svg>
